<svg width="256" height="256" viewBox="0 0 256 256" fill="none" xmlns="http://www.w3.org/2000/svg">
<g clip-path="url(#clip0_175_26)">
<rect width="256" height="256" rx="128" fill="#D9D9D9"/>
<rect width="256" height="256" rx="128" fill="url(#paint0_linear_175_26)"/>
<circle cx="128" cy="128" r="102" fill="url(#paint1_linear_175_26)"/>
<mask id="mask0_175_26" style="mask-type:alpha" maskUnits="userSpaceOnUse" x="35" y="66" width="185" height="124">
<rect x="35.1072" y="66.0713" width="184.875" height="122.946" fill="#FF8686"/>
</mask>
<g mask="url(#mask0_175_26)">
<path fill-rule="evenodd" clip-rule="evenodd" d="M130.648 131.197C132.302 130.902 133.404 129.322 133.109 127.668C132.814 126.014 131.234 124.913 129.581 125.207L63.181 137.041C61.5271 137.336 60.4253 138.915 60.7201 140.569C61.0148 142.223 62.5945 143.325 64.2484 143.03L130.648 131.197Z" fill="#FF6593"/>
<path d="M183.787 74.6265C185.258 73.0198 185.148 70.5247 183.542 69.0535C181.935 67.5823 179.44 67.6921 177.969 69.2987L125.393 126.715V182.41C125.393 184.588 127.159 186.354 129.338 186.354C131.516 186.354 133.282 184.588 133.282 182.41V129.781L183.787 74.6265Z" fill="#53525F"/>
<path d="M183.787 74.6265C185.258 73.0198 185.148 70.5247 183.542 69.0535C181.935 67.5823 179.44 67.6921 177.969 69.2987L125.393 126.715V182.41C125.393 184.588 127.159 186.354 129.338 186.354C131.516 186.354 133.282 184.588 133.282 182.41V129.781L183.787 74.6265Z" fill="black" fill-opacity="0.2"/>
<path d="M183.787 74.6265C185.258 73.0198 185.148 70.5247 183.542 69.0535C181.935 67.5823 179.44 67.6921 177.969 69.2987L125.393 126.715V182.41C125.393 184.588 127.159 186.354 129.338 186.354C131.516 186.354 133.282 184.588 133.282 182.41V129.781L183.787 74.6265Z" stroke="#53525F" stroke-width="3.64286" stroke-linecap="round"/>
<path d="M183.787 74.6265C185.258 73.0198 185.148 70.5247 183.542 69.0535C181.935 67.5823 179.44 67.6921 177.969 69.2987L125.393 126.715V182.41C125.393 184.588 127.159 186.354 129.338 186.354C131.516 186.354 133.282 184.588 133.282 182.41V129.781L183.787 74.6265Z" stroke="black" stroke-opacity="0.2" stroke-width="3.64286" stroke-linecap="round"/>
<circle cx="128.455" cy="128.455" r="10.0179" fill="white"/>
<circle cx="128.455" cy="128.455" r="10.0179" fill="url(#paint2_linear_175_26)"/>
<circle cx="128.455" cy="128.455" r="10.0179" stroke="#53525F" stroke-width="6.375"/>
</g>
</g>
<defs>
<linearGradient id="paint0_linear_175_26" x1="128" y1="256" x2="128" y2="0" gradientUnits="userSpaceOnUse">
<stop stop-color="#1B0F13"/>
<stop offset="1" stop-color="#271C20"/>
</linearGradient>
<linearGradient id="paint1_linear_175_26" x1="26.6456" y1="26" x2="245.113" y2="213.226" gradientUnits="userSpaceOnUse">
<stop stop-color="#EDF4FB"/>
<stop offset="0.9999" stop-color="#D0D5E1"/>
<stop offset="1" stop-color="#E1CFD5"/>
</linearGradient>
<linearGradient id="paint2_linear_175_26" x1="97" y1="19.5" x2="157.892" y2="228.005" gradientUnits="userSpaceOnUse">
<stop stop-color="#EDF4FB"/>
<stop offset="0.9999" stop-color="#D0D5E1"/>
<stop offset="1" stop-color="#E1CFD5"/>
</linearGradient>
<clipPath id="clip0_175_26">
<rect width="256" height="256" fill="white"/>
</clipPath>
</defs>
</svg>
