<svg width="256" height="256" viewBox="0 0 256 256" fill="none" xmlns="http://www.w3.org/2000/svg">
<path d="M1.0188 82.954C1.0188 62.2842 17.775 45.528 38.4449 45.528H58.1224C68.1335 45.528 77.5552 40.7952 83.532 32.764C89.5088 24.7328 98.9306 20 108.942 20H148.249C157.539 20 166.158 24.836 170.999 32.764C175.84 40.692 184.459 45.528 193.748 45.528H217.555C238.225 45.528 254.981 62.2842 254.981 82.9541V198.574C254.981 219.244 238.225 236 217.555 236H38.4449C17.775 236 1.0188 219.244 1.0188 198.574V82.954Z" fill="url(#paint0_linear_171_15)"/>
<path d="M1.0188 82.954C1.0188 62.2842 17.775 45.528 38.4449 45.528H58.1224C68.1335 45.528 77.5552 40.7952 83.532 32.764C89.5088 24.7328 98.9306 20 108.942 20H148.249C157.539 20 166.158 24.836 170.999 32.764C175.84 40.692 184.459 45.528 193.748 45.528H217.555C238.225 45.528 254.981 62.2842 254.981 82.9541V198.574C254.981 219.244 238.225 236 217.555 236H38.4449C17.775 236 1.0188 219.244 1.0188 198.574V82.954Z" fill="white" fill-opacity="0.06"/>
<path d="M1.0188 82.954C1.0188 62.2842 17.775 45.528 38.4449 45.528H58.1224C68.1335 45.528 77.5552 40.7952 83.532 32.764C89.5088 24.7328 98.9306 20 108.942 20H148.249C157.539 20 166.158 24.836 170.999 32.764C175.84 40.692 184.459 45.528 193.748 45.528H217.555C238.225 45.528 254.981 62.2842 254.981 82.9541V198.574C254.981 219.244 238.225 236 217.555 236H38.4449C17.775 236 1.0188 219.244 1.0188 198.574V82.954Z" fill="url(#paint1_linear_171_15)" fill-opacity="0.2"/>
<circle cx="127.784" cy="137.409" r="62.8223" fill="url(#paint2_linear_171_15)"/>
<circle cx="127.784" cy="137.409" r="62.8223" fill="url(#paint3_linear_171_15)" fill-opacity="0.2"/>
<circle cx="127.784" cy="137.409" r="62.8223" fill="black" fill-opacity="0.47"/>
<circle cx="127.784" cy="137.409" r="62.8223" stroke="url(#paint4_linear_171_15)" stroke-width="18.713"/>
<rect x="203.109" y="70.6001" width="24.6828" height="24.6828" rx="12.3414" fill="url(#paint5_radial_171_15)"/>
<rect x="203.109" y="70.6001" width="24.6828" height="24.6828" rx="12.3414" fill="url(#paint6_radial_171_15)" fill-opacity="0.26"/>
<defs>
<linearGradient id="paint0_linear_171_15" x1="128" y1="20" x2="128" y2="233.052" gradientUnits="userSpaceOnUse">
<stop stop-color="#2F3943"/>
<stop offset="1" stop-color="#1A2027"/>
</linearGradient>
<linearGradient id="paint1_linear_171_15" x1="127.775" y1="8.28942" x2="129.164" y2="74.5943" gradientUnits="userSpaceOnUse">
<stop stop-color="white"/>
<stop offset="1" stop-color="white" stop-opacity="0"/>
</linearGradient>
<linearGradient id="paint2_linear_171_15" x1="127.784" y1="65.2305" x2="127.784" y2="207.618" gradientUnits="userSpaceOnUse">
<stop stop-color="#2F3943"/>
<stop offset="1" stop-color="#1A2027"/>
</linearGradient>
<linearGradient id="paint3_linear_171_15" x1="127.656" y1="57.404" x2="128.747" y2="101.71" gradientUnits="userSpaceOnUse">
<stop stop-color="white"/>
<stop offset="1" stop-color="white" stop-opacity="0"/>
</linearGradient>
<linearGradient id="paint4_linear_171_15" x1="127.784" y1="65.2305" x2="127.784" y2="209.588" gradientUnits="userSpaceOnUse">
<stop stop-color="#E6EDFF"/>
<stop offset="1" stop-color="#A4ABBE"/>
</linearGradient>
<radialGradient id="paint5_radial_171_15" cx="0" cy="0" r="1" gradientUnits="userSpaceOnUse" gradientTransform="translate(215.451 82.9415) rotate(45) scale(17.4534)">
<stop stop-color="#FF9500"/>
<stop offset="1" stop-color="#FFBB4D"/>
</radialGradient>
<radialGradient id="paint6_radial_171_15" cx="0" cy="0" r="1" gradientUnits="userSpaceOnUse" gradientTransform="translate(215.451 82.9415) rotate(91.1086) scale(10.0534)">
<stop stop-color="white" stop-opacity="0"/>
<stop offset="1" stop-color="white"/>
</radialGradient>
</defs>
</svg>
