<svg width="256" height="256" viewBox="0 0 256 256" fill="none" xmlns="http://www.w3.org/2000/svg">
<path fill-rule="evenodd" clip-rule="evenodd" d="M153.537 11.735C140.778 4.11875 124.584 13.3119 124.584 28.1715V119.512C114.207 113.901 102.224 110.938 89.5812 111.489C52.3267 113.112 23.4419 144.629 25.0653 181.884C26.6886 219.138 58.2053 248.023 95.4597 246.399C132.359 244.792 161.047 213.858 160.014 177.069C160.06 176.547 160.084 176.018 160.084 175.484V56.986L205.15 83.8866C213.567 88.911 224.464 86.1605 229.488 77.7431C234.513 69.3256 231.762 58.4288 223.345 53.4043L153.537 11.735Z" fill="url(#paint0_linear_108_30)"/>
<defs>
<linearGradient id="paint0_linear_108_30" x1="144.65" y1="9.33006" x2="133.63" y2="248.13" gradientUnits="userSpaceOnUse">
<stop stop-color="#FF6FB4"/>
<stop offset="1" stop-color="#FF2F61"/>
</linearGradient>
</defs>
</svg>
