<svg width="256" height="256" viewBox="0 0 256 256" fill="none" xmlns="http://www.w3.org/2000/svg">
<g filter="url(#filter0_i_108_25)">
<mask id="mask0_108_25" style="mask-type:alpha" maskUnits="userSpaceOnUse" x="0" y="33" width="256" height="190">
<path d="M0 65V190.44C0 208.113 14.3269 222.44 32 222.44H224C241.673 222.44 256 208.113 256 190.44V65C256 47.3269 241.673 33 224 33H32C14.3269 33 0 47.3269 0 65Z" fill="url(#paint0_linear_108_25)"/>
<path d="M0 65V190.44C0 208.113 14.3269 222.44 32 222.44H224C241.673 222.44 256 208.113 256 190.44V65C256 47.3269 241.673 33 224 33H32C14.3269 33 0 47.3269 0 65Z" fill="#05152E" fill-opacity="0.04"/>
</mask>
<g mask="url(#mask0_108_25)">
<path d="M0 45V210.44C0 217.067 5.37258 222.44 12 222.44H244C250.627 222.44 256 217.067 256 210.44V45C256 38.3726 250.627 33 244 33H12C5.37258 33 0 38.3726 0 45Z" fill="url(#paint1_linear_108_25)"/>
<path d="M0 45V210.44C0 217.067 5.37258 222.44 12 222.44H244C250.627 222.44 256 217.067 256 210.44V45C256 38.3726 250.627 33 244 33H12C5.37258 33 0 38.3726 0 45Z" fill="#05152E" fill-opacity="0.04"/>
<g filter="url(#filter1_d_108_25)">
<path d="M108.123 132.102L12.0753 211.96C7.991 215.356 10.3923 222 15.7039 222H240.426C245.722 222 248.132 215.387 244.078 211.979L149.17 132.211C137.316 122.248 120.029 122.202 108.123 132.102Z" fill="url(#paint2_linear_108_25)"/>
<path d="M108.123 132.102L12.0753 211.96C7.991 215.356 10.3923 222 15.7039 222H240.426C245.722 222 248.132 215.387 244.078 211.979L149.17 132.211C137.316 122.248 120.029 122.202 108.123 132.102Z" fill="#F1F6FE" fill-opacity="0.14"/>
</g>
<g filter="url(#filter2_di_108_25)">
<path d="M105.655 137.371L0 29H256L151.601 137.247C139.064 150.245 118.262 150.302 105.655 137.371Z" fill="url(#paint3_linear_108_25)"/>
<path d="M105.655 137.371L0 29H256L151.601 137.247C139.064 150.245 118.262 150.302 105.655 137.371Z" fill="#F1F6FE" fill-opacity="0.16"/>
</g>
</g>
</g>
<defs>
<filter id="filter0_i_108_25" x="0" y="23" width="256" height="199.44" filterUnits="userSpaceOnUse" color-interpolation-filters="sRGB">
<feFlood flood-opacity="0" result="BackgroundImageFix"/>
<feBlend mode="normal" in="SourceGraphic" in2="BackgroundImageFix" result="shape"/>
<feColorMatrix in="SourceAlpha" type="matrix" values="0 0 0 0 0 0 0 0 0 0 0 0 0 0 0 0 0 0 127 0" result="hardAlpha"/>
<feOffset dy="-10"/>
<feGaussianBlur stdDeviation="8.5"/>
<feComposite in2="hardAlpha" operator="arithmetic" k2="-1" k3="1"/>
<feColorMatrix type="matrix" values="0 0 0 0 0 0 0 0 0 0.397222 0 0 0 0 0.541667 0 0 0 0.2 0"/>
<feBlend mode="normal" in2="shape" result="effect1_innerShadow_108_25"/>
</filter>
<filter id="filter1_d_108_25" x="-2.58315" y="106.108" width="261.296" height="122.492" filterUnits="userSpaceOnUse" color-interpolation-filters="sRGB">
<feFlood flood-opacity="0" result="BackgroundImageFix"/>
<feColorMatrix in="SourceAlpha" type="matrix" values="0 0 0 0 0 0 0 0 0 0 0 0 0 0 0 0 0 0 127 0" result="hardAlpha"/>
<feOffset dy="-6"/>
<feGaussianBlur stdDeviation="6.3"/>
<feComposite in2="hardAlpha" operator="out"/>
<feColorMatrix type="matrix" values="0 0 0 0 0.0494792 0 0 0 0 0.211198 0 0 0 0 0.471354 0 0 0 0.03 0"/>
<feBlend mode="normal" in2="BackgroundImageFix" result="effect1_dropShadow_108_25"/>
<feBlend mode="normal" in="SourceGraphic" in2="effect1_dropShadow_108_25" result="shape"/>
</filter>
<filter id="filter2_di_108_25" x="-8" y="24" width="272" height="139.032" filterUnits="userSpaceOnUse" color-interpolation-filters="sRGB">
<feFlood flood-opacity="0" result="BackgroundImageFix"/>
<feColorMatrix in="SourceAlpha" type="matrix" values="0 0 0 0 0 0 0 0 0 0 0 0 0 0 0 0 0 0 127 0" result="hardAlpha"/>
<feOffset dy="8"/>
<feGaussianBlur stdDeviation="4"/>
<feComposite in2="hardAlpha" operator="out"/>
<feColorMatrix type="matrix" values="0 0 0 0 0.0502708 0 0 0 0 0.214577 0 0 0 0 0.478896 0 0 0 0.08 0"/>
<feBlend mode="normal" in2="BackgroundImageFix" result="effect1_dropShadow_108_25"/>
<feBlend mode="normal" in="SourceGraphic" in2="effect1_dropShadow_108_25" result="shape"/>
<feColorMatrix in="SourceAlpha" type="matrix" values="0 0 0 0 0 0 0 0 0 0 0 0 0 0 0 0 0 0 127 0" result="hardAlpha"/>
<feOffset dy="-6"/>
<feGaussianBlur stdDeviation="2.5"/>
<feComposite in2="hardAlpha" operator="arithmetic" k2="-1" k3="1"/>
<feColorMatrix type="matrix" values="0 0 0 0 0.0502708 0 0 0 0 0.214577 0 0 0 0 0.478896 0 0 0 0.06 0"/>
<feBlend mode="normal" in2="shape" result="effect2_innerShadow_108_25"/>
</filter>
<linearGradient id="paint0_linear_108_25" x1="128" y1="33" x2="128" y2="222.44" gradientUnits="userSpaceOnUse">
<stop offset="0.5" stop-color="#F1F6FE"/>
<stop offset="1" stop-color="#DEEAFC"/>
</linearGradient>
<linearGradient id="paint1_linear_108_25" x1="128" y1="33" x2="128" y2="222.44" gradientUnits="userSpaceOnUse">
<stop offset="0.5" stop-color="#F1F6FE"/>
<stop offset="1" stop-color="#DEEAFC"/>
</linearGradient>
<linearGradient id="paint2_linear_108_25" x1="128" y1="115" x2="128" y2="222" gradientUnits="userSpaceOnUse">
<stop offset="0.51" stop-color="#F1F6FE"/>
<stop offset="1" stop-color="#EAF1FD"/>
</linearGradient>
<linearGradient id="paint3_linear_108_25" x1="128" y1="29" x2="128" y2="161" gradientUnits="userSpaceOnUse">
<stop stop-color="#F1F6FE"/>
<stop offset="1" stop-color="#F1F6FE"/>
</linearGradient>
</defs>
</svg>
