<svg width="256" height="256" viewBox="0 0 256 256" fill="none" xmlns="http://www.w3.org/2000/svg">
<path d="M196.478 68.1739C196.478 59.2212 194.715 50.3561 191.289 42.0849C187.863 33.8136 182.841 26.2982 176.511 19.9677C170.18 13.6371 162.665 8.61549 154.393 5.18943C146.122 1.76337 137.257 -3.91336e-07 128.304 0C119.352 3.91336e-07 110.486 1.76337 102.215 5.18943C93.944 8.61549 86.4286 13.6371 80.098 19.9677C73.7675 26.2982 68.7459 33.8136 65.3198 42.0849C61.8937 50.3561 60.1304 59.2212 60.1304 68.1739H81.9837C81.9837 62.091 83.1818 56.0677 85.5096 50.4478C87.8374 44.8279 91.2494 39.7216 95.5507 35.4203C99.8519 31.119 104.958 27.7071 110.578 25.3792C116.198 23.0514 122.221 21.8533 128.304 21.8533C134.387 21.8533 140.411 23.0514 146.03 25.3792C151.65 27.7071 156.757 31.119 161.058 35.4203C165.359 39.7215 168.771 44.8279 171.099 50.4478C173.427 56.0677 174.625 62.091 174.625 68.1739H196.478Z" fill="url(#paint0_linear_74_66)"/>
<g filter="url(#filter0_i_74_66)">
<rect x="17" y="47.3042" width="222.609" height="208.696" rx="36.1739" fill="#F7FDFF"/>
</g>
<circle cx="163.507" cy="110.874" r="32.8739" fill="url(#paint1_linear_74_66)"/>
<rect x="58" y="122.828" width="66.9219" height="65.7478" rx="14.3432" fill="url(#paint2_linear_74_66)"/>
<path d="M134.009 199.588C129.507 197.338 129.507 190.915 134.009 188.664L187.541 161.905C191.602 159.875 196.381 162.827 196.381 167.367V220.885C196.381 225.425 191.602 228.378 187.541 226.347L134.009 199.588Z" fill="url(#paint3_linear_74_66)"/>
<path d="M134.009 199.588C129.507 197.338 129.507 190.915 134.009 188.664L187.541 161.905C191.602 159.875 196.381 162.827 196.381 167.367V220.885C196.381 225.425 191.602 228.378 187.541 226.347L134.009 199.588Z" fill="url(#paint4_linear_74_66)"/>
<defs>
<filter id="filter0_i_74_66" x="17" y="34.8042" width="222.609" height="221.196" filterUnits="userSpaceOnUse" color-interpolation-filters="sRGB">
<feFlood flood-opacity="0" result="BackgroundImageFix"/>
<feBlend mode="normal" in="SourceGraphic" in2="BackgroundImageFix" result="shape"/>
<feColorMatrix in="SourceAlpha" type="matrix" values="0 0 0 0 0 0 0 0 0 0 0 0 0 0 0 0 0 0 127 0" result="hardAlpha"/>
<feMorphology radius="8" operator="dilate" in="SourceAlpha" result="effect1_innerShadow_74_66"/>
<feOffset dy="-27"/>
<feGaussianBlur stdDeviation="10.25"/>
<feComposite in2="hardAlpha" operator="arithmetic" k2="-1" k3="1"/>
<feColorMatrix type="matrix" values="0 0 0 0 0 0 0 0 0 0.363611 0 0 0 0 0.495833 0 0 0 0.19 0"/>
<feBlend mode="normal" in2="shape" result="effect1_innerShadow_74_66"/>
</filter>
<linearGradient id="paint0_linear_74_66" x1="128.304" y1="0" x2="128.304" y2="136.348" gradientUnits="userSpaceOnUse">
<stop offset="0.1595" stop-color="#E3E3E3"/>
<stop offset="0.412008" stop-color="#B2CED9"/>
</linearGradient>
<linearGradient id="paint1_linear_74_66" x1="163.807" y1="78" x2="163.807" y2="143.359" gradientUnits="userSpaceOnUse">
<stop stop-color="#2E43FF"/>
<stop offset="1" stop-color="#FF1AF6"/>
</linearGradient>
<linearGradient id="paint2_linear_74_66" x1="58" y1="156.391" x2="124.527" y2="156.391" gradientUnits="userSpaceOnUse">
<stop stop-color="#FF1A88"/>
<stop offset="1" stop-color="#FF951A"/>
</linearGradient>
<linearGradient id="paint3_linear_74_66" x1="124.228" y1="229.621" x2="196.172" y2="157.66" gradientUnits="userSpaceOnUse">
<stop stop-color="#00FFB3"/>
<stop offset="1" stop-color="#00FF57"/>
</linearGradient>
<linearGradient id="paint4_linear_74_66" x1="130.633" y1="194.815" x2="195.992" y2="194.815" gradientUnits="userSpaceOnUse">
<stop stop-color="#4BFFD4"/>
<stop offset="1" stop-color="#4B5DFF"/>
</linearGradient>
</defs>
</svg>
