<svg width="256" height="256" viewBox="0 0 256 256" fill="none" xmlns="http://www.w3.org/2000/svg">
<g clip-path="url(#clip0_108_19)">
<path d="M100.966 17.9596C114.346 -0.332203 141.654 -0.332205 155.034 17.9596C162.431 28.0728 174.939 33.1981 187.318 31.2607C209.627 27.7694 229.047 47.007 225.527 69.3116C223.576 81.6756 228.727 94.0904 238.859 101.44C257.179 114.727 257.179 142.029 238.859 155.317C228.727 162.666 223.576 175.081 225.527 187.445C229.047 209.749 209.627 228.987 187.318 225.496C174.939 223.558 162.431 228.683 155.034 238.797C141.654 257.089 114.346 257.089 100.966 238.797C93.5688 228.683 81.0613 223.558 68.6822 225.496C46.373 228.987 26.953 209.749 30.4731 187.445C32.4244 175.081 27.2731 162.666 17.1407 155.317C-1.17874 142.029 -1.17874 114.727 17.1407 101.44C27.2731 94.0904 32.4244 81.6756 30.4731 69.3116C26.953 47.007 46.373 27.7694 68.6822 31.2607C81.0613 33.1981 93.5688 28.0728 100.966 17.9596Z" fill="url(#paint0_linear_108_19)"/>
<path d="M101.483 18.3379C114.607 0.395971 141.393 0.395969 154.517 18.3379C162.057 28.646 174.803 33.8678 187.417 31.8937C209.302 28.4688 228.346 47.3415 224.894 69.2117C222.905 81.8137 228.156 94.4675 238.483 101.958C256.45 114.99 256.45 141.767 238.483 154.798C228.156 162.289 222.905 174.943 224.894 187.545C228.346 209.415 209.302 228.288 187.417 224.863C174.803 222.888 162.057 228.11 154.517 238.418C141.393 256.36 114.607 256.36 101.483 238.418C93.9434 228.11 81.1974 222.888 68.5831 224.863C46.6982 228.288 27.6544 209.415 31.106 187.545C33.0949 174.943 27.8444 162.289 17.5169 154.798C-0.449871 141.767 -0.449875 114.99 17.5169 101.958C27.8444 94.4675 33.0949 81.8137 31.106 69.2117C27.6544 47.3416 46.6982 28.4688 68.5831 31.8937C81.1974 33.8678 93.9434 28.646 101.483 18.3379Z" stroke="white" stroke-opacity="0.04" stroke-width="1.28139"/>
<rect x="67.7754" y="68.1343" width="120.45" height="120.45" rx="60.2251" fill="url(#paint1_linear_108_19)"/>
</g>
<defs>
<linearGradient id="paint0_linear_108_19" x1="128" y1="10.7922" x2="135.368" y2="249.45" gradientUnits="userSpaceOnUse">
<stop stop-color="#EEF7FF"/>
<stop offset="1" stop-color="#9EC1DF"/>
</linearGradient>
<linearGradient id="paint1_linear_108_19" x1="128" y1="68.1343" x2="128" y2="188.584" gradientUnits="userSpaceOnUse">
<stop stop-color="#5A717D"/>
<stop offset="1" stop-color="#456170"/>
</linearGradient>
<clipPath id="clip0_108_19">
<rect width="256" height="256" fill="white"/>
</clipPath>
</defs>
</svg>
