<svg width="256" height="256" viewBox="0 0 256 256" fill="none" xmlns="http://www.w3.org/2000/svg">
<g clip-path="url(#clip0_548_45)" filter="url(#filter0_i_548_45)">
<path fill-rule="evenodd" clip-rule="evenodd" d="M32 0C14.3269 0 0 14.3269 0 32V224C0 241.673 14.3269 256 32 256H224C241.673 256 256 241.673 256 224V32C256 14.3269 241.673 0 224 0H32ZM204 27.6C204 23.1817 207.582 19.6 212 19.6H228C232.418 19.6 236 23.1817 236 27.6V43.6C236 48.0183 232.418 51.6 228 51.6H212C207.582 51.6 204 48.0183 204 43.6V27.6ZM28 20C23.5817 20 20 23.5817 20 28V44C20 48.4183 23.5817 52 28 52H44C48.4183 52 52 48.4183 52 44V28C52 23.5817 48.4183 20 44 20H28ZM28 81.6C23.5817 81.6 20 85.1817 20 89.6V105.6C20 110.018 23.5817 113.6 28 113.6H44C48.4183 113.6 52 110.018 52 105.6V89.6C52 85.1817 48.4183 81.6 44 81.6H28ZM20 151.2C20 146.782 23.5817 143.2 28 143.2H44C48.4183 143.2 52 146.782 52 151.2V167.2C52 171.618 48.4183 175.2 44 175.2H28C23.5817 175.2 20 171.618 20 167.2V151.2ZM28 204.8C23.5817 204.8 20 208.382 20 212.8V228.8C20 233.218 23.5817 236.8 28 236.8H44C48.4183 236.8 52 233.218 52 228.8V212.8C52 208.382 48.4183 204.8 44 204.8H28ZM212 81.2C207.582 81.2 204 84.7817 204 89.2V105.2C204 109.618 207.582 113.2 212 113.2H228C232.418 113.2 236 109.618 236 105.2V89.2C236 84.7817 232.418 81.2 228 81.2H212ZM204 150.8C204 146.382 207.582 142.8 212 142.8H228C232.418 142.8 236 146.382 236 150.8V166.8C236 171.218 232.418 174.8 228 174.8H212C207.582 174.8 204 171.218 204 166.8V150.8ZM212 204.4C207.582 204.4 204 207.982 204 212.4V228.4C204 232.818 207.582 236.4 212 236.4H228C232.418 236.4 236 232.818 236 228.4V212.4C236 207.982 232.418 204.4 228 204.4H212Z" fill="url(#paint0_linear_548_45)"/>
<path fill-rule="evenodd" clip-rule="evenodd" d="M32 0C14.3269 0 0 14.3269 0 32V224C0 241.673 14.3269 256 32 256H224C241.673 256 256 241.673 256 224V32C256 14.3269 241.673 0 224 0H32ZM204 27.6C204 23.1817 207.582 19.6 212 19.6H228C232.418 19.6 236 23.1817 236 27.6V43.6C236 48.0183 232.418 51.6 228 51.6H212C207.582 51.6 204 48.0183 204 43.6V27.6ZM28 20C23.5817 20 20 23.5817 20 28V44C20 48.4183 23.5817 52 28 52H44C48.4183 52 52 48.4183 52 44V28C52 23.5817 48.4183 20 44 20H28ZM28 81.6C23.5817 81.6 20 85.1817 20 89.6V105.6C20 110.018 23.5817 113.6 28 113.6H44C48.4183 113.6 52 110.018 52 105.6V89.6C52 85.1817 48.4183 81.6 44 81.6H28ZM20 151.2C20 146.782 23.5817 143.2 28 143.2H44C48.4183 143.2 52 146.782 52 151.2V167.2C52 171.618 48.4183 175.2 44 175.2H28C23.5817 175.2 20 171.618 20 167.2V151.2ZM28 204.8C23.5817 204.8 20 208.382 20 212.8V228.8C20 233.218 23.5817 236.8 28 236.8H44C48.4183 236.8 52 233.218 52 228.8V212.8C52 208.382 48.4183 204.8 44 204.8H28ZM212 81.2C207.582 81.2 204 84.7817 204 89.2V105.2C204 109.618 207.582 113.2 212 113.2H228C232.418 113.2 236 109.618 236 105.2V89.2C236 84.7817 232.418 81.2 228 81.2H212ZM204 150.8C204 146.382 207.582 142.8 212 142.8H228C232.418 142.8 236 146.382 236 150.8V166.8C236 171.218 232.418 174.8 228 174.8H212C207.582 174.8 204 171.218 204 166.8V150.8ZM212 204.4C207.582 204.4 204 207.982 204 212.4V228.4C204 232.818 207.582 236.4 212 236.4H228C232.418 236.4 236 232.818 236 228.4V212.4C236 207.982 232.418 204.4 228 204.4H212Z" fill="white" fill-opacity="0.16"/>
<path d="M68 28C68 23.5817 71.5817 20 76 20H181C185.418 20 189 23.5817 189 28V230C189 234.418 185.418 238 181 238H76C71.5817 238 68 234.418 68 230V28Z" fill="#D9D9D9"/>
<g clip-path="url(#clip1_548_45)">
<mask id="mask0_548_45" style="mask-type:alpha" maskUnits="userSpaceOnUse" x="68" y="20" width="121" height="218">
<rect x="68" y="20" width="121" height="218" fill="url(#paint1_linear_548_45)"/>
</mask>
<g mask="url(#mask0_548_45)">
<rect x="68" y="20" width="121" height="218" fill="url(#paint2_linear_548_45)"/>
<circle cx="150" cy="139" r="21" fill="url(#paint3_linear_548_45)"/>
<circle cx="150" cy="139" r="21" fill="#FF7700" style="mix-blend-mode:hard-light"/>
<path d="M74.1109 157.407C79.4193 153.581 86.5807 153.581 91.8891 157.407L184.23 223.965C196.2 232.594 190.096 251.5 175.34 251.5H-9.34041C-24.0964 251.5 -30.2 232.594 -18.2295 223.965L74.1109 157.407Z" fill="url(#paint4_linear_548_45)"/>
<path d="M74.1109 157.407C79.4193 153.581 86.5807 153.581 91.8891 157.407L184.23 223.965C196.2 232.594 190.096 251.5 175.34 251.5H-9.34041C-24.0964 251.5 -30.2 232.594 -18.2295 223.965L74.1109 157.407Z" fill="black" fill-opacity="0.32" style="mix-blend-mode:luminosity"/>
<path d="M74.1109 157.407C79.4193 153.581 86.5807 153.581 91.8891 157.407L184.23 223.965C196.2 232.594 190.096 251.5 175.34 251.5H-9.34041C-24.0964 251.5 -30.2 232.594 -18.2295 223.965L74.1109 157.407Z" fill="#FF814A" fill-opacity="0.5" style="mix-blend-mode:hard-light"/>
<path d="M155.641 146.352C160.937 142.555 168.063 142.555 173.359 146.352L274.594 218.944C286.601 227.553 280.51 246.5 265.735 246.5H63.2652C48.4902 246.5 42.3993 227.553 54.4065 218.944L155.641 146.352Z" fill="url(#paint5_linear_548_45)"/>
<path d="M155.641 146.352C160.937 142.555 168.063 142.555 173.359 146.352L274.594 218.944C286.601 227.553 280.51 246.5 265.735 246.5H63.2652C48.4902 246.5 42.3993 227.553 54.4065 218.944L155.641 146.352Z" fill="black" fill-opacity="0.32" style="mix-blend-mode:luminosity"/>
<path d="M155.641 146.352C160.937 142.555 168.063 142.555 173.359 146.352L274.594 218.944C286.601 227.553 280.51 246.5 265.735 246.5H63.2652C48.4902 246.5 42.3993 227.553 54.4065 218.944L155.641 146.352Z" fill="#FF814A" fill-opacity="0.5" style="mix-blend-mode:hard-light"/>
</g>
</g>
</g>
<defs>
<filter id="filter0_i_548_45" x="0" y="0" width="256" height="258" filterUnits="userSpaceOnUse" color-interpolation-filters="sRGB">
<feFlood flood-opacity="0" result="BackgroundImageFix"/>
<feBlend mode="normal" in="SourceGraphic" in2="BackgroundImageFix" result="shape"/>
<feColorMatrix in="SourceAlpha" type="matrix" values="0 0 0 0 0 0 0 0 0 0 0 0 0 0 0 0 0 0 127 0" result="hardAlpha"/>
<feOffset dy="2"/>
<feGaussianBlur stdDeviation="1.7"/>
<feComposite in2="hardAlpha" operator="arithmetic" k2="-1" k3="1"/>
<feColorMatrix type="matrix" values="0 0 0 0 1 0 0 0 0 1 0 0 0 0 1 0 0 0 0.12 0"/>
<feBlend mode="normal" in2="shape" result="effect1_innerShadow_548_45"/>
</filter>
<linearGradient id="paint0_linear_548_45" x1="128" y1="0" x2="128" y2="256" gradientUnits="userSpaceOnUse">
<stop stop-color="#0F0E18"/>
<stop offset="1" stop-color="#090A11"/>
</linearGradient>
<linearGradient id="paint1_linear_548_45" x1="128.5" y1="20" x2="128.5" y2="238" gradientUnits="userSpaceOnUse">
<stop stop-color="#0059FF"/>
<stop offset="1" stop-color="#94CFFF"/>
</linearGradient>
<linearGradient id="paint2_linear_548_45" x1="111.5" y1="19.9999" x2="117.311" y2="238.165" gradientUnits="userSpaceOnUse">
<stop stop-color="#759CFF"/>
<stop offset="0.584272" stop-color="#FFD3B3"/>
</linearGradient>
<linearGradient id="paint3_linear_548_45" x1="150" y1="118" x2="150" y2="166.562" gradientUnits="userSpaceOnUse">
<stop offset="0.22377" stop-color="#DEF0FF"/>
<stop offset="1" stop-color="#7AB5E9"/>
</linearGradient>
<linearGradient id="paint4_linear_548_45" x1="83" y1="151" x2="83" y2="237.786" gradientUnits="userSpaceOnUse">
<stop stop-color="#A2D2FF"/>
<stop offset="1" stop-color="#0075E2"/>
</linearGradient>
<linearGradient id="paint5_linear_548_45" x1="164.5" y1="140" x2="164.5" y2="231.967" gradientUnits="userSpaceOnUse">
<stop stop-color="#DEF0FF"/>
<stop offset="1" stop-color="#7AB5E9"/>
</linearGradient>
<clipPath id="clip0_548_45">
<rect width="256" height="256" fill="white"/>
</clipPath>
<clipPath id="clip1_548_45">
<rect x="68" y="20" width="121" height="218" rx="8" fill="white"/>
</clipPath>
</defs>
</svg>
