<svg width="256" height="256" viewBox="0 0 256 256" fill="none" xmlns="http://www.w3.org/2000/svg">
<rect x="103.85" y="2.23535" width="160" height="200" rx="12" transform="rotate(27.79 103.85 2.23535)" fill="white"/>
<mask id="mask0_395_30" style="mask-type:alpha" maskUnits="userSpaceOnUse" x="56" y="29" width="163" height="163">
<rect x="112.219" y="29.2534" width="120" height="120" transform="rotate(27.79 112.219 29.2534)" fill="url(#paint0_linear_395_30)"/>
</mask>
<g mask="url(#mask0_395_30)">
<rect x="112.219" y="29.2534" width="120" height="120" transform="rotate(27.79 112.219 29.2534)" fill="url(#paint1_linear_395_30)"/>
<rect x="112.219" y="29.2534" width="120" height="120" transform="rotate(27.79 112.219 29.2534)" fill="#FF1E00" fill-opacity="0.1"/>
<circle cx="111.59" cy="95.3455" r="14.0328" transform="rotate(27.79 111.59 95.3455)" fill="url(#paint2_linear_395_30)"/>
<path d="M106.534 93.858C112.149 92.4718 117.913 95.5092 119.943 100.925L161.447 211.627C165.127 221.441 154.728 230.603 145.455 225.716L-10.8293 143.351C-20.102 138.465 -18.4224 124.708 -8.24634 122.196L106.534 93.858Z" fill="url(#paint3_linear_395_30)"/>
<path d="M106.534 93.858C112.149 92.4718 117.913 95.5092 119.943 100.925L161.447 211.627C165.127 221.441 154.728 230.603 145.455 225.716L-10.8293 143.351C-20.102 138.465 -18.4224 124.708 -8.24634 122.196L106.534 93.858Z" fill="#FF3300" fill-opacity="0.24"/>
<path d="M166.768 107.014C172.383 105.628 178.146 108.665 180.177 114.08L221.681 224.783C225.36 234.597 214.962 243.759 205.689 238.872L49.4043 156.507C40.1317 151.62 41.8112 137.864 51.9873 135.351L166.768 107.014Z" fill="url(#paint4_linear_395_30)"/>
<path d="M166.768 107.014C172.383 105.628 178.146 108.665 180.177 114.08L221.681 224.783C225.36 234.597 214.962 243.759 205.689 238.872L49.4043 156.507C40.1317 151.62 41.8112 137.864 51.9873 135.351L166.768 107.014Z" fill="#FF3300" fill-opacity="0.16"/>
</g>
<g filter="url(#filter0_dd_395_30)">
<rect x="48" y="28" width="160" height="200" rx="21" fill="white"/>
<rect x="48.25" y="28.25" width="159.5" height="199.5" rx="20.75" stroke="black" stroke-opacity="0.16" stroke-width="0.5"/>
<g clip-path="url(#clip0_395_30)">
<mask id="mask1_395_30" style="mask-type:alpha" maskUnits="userSpaceOnUse" x="63" y="43" width="130" height="130">
<rect x="63" y="43" width="130" height="130" fill="url(#paint5_linear_395_30)"/>
</mask>
<g mask="url(#mask1_395_30)">
</g>
<g clip-path="url(#clip1_395_30)">
<rect width="130" height="130" transform="translate(63 43)" fill="url(#paint6_linear_395_30)"/>
<rect x="81.353" y="60.5884" width="28.2941" height="28.2941" rx="14.1471" fill="url(#paint7_linear_395_30)"/>
<path d="M38.2691 152.358L91.5662 102.705C96.3598 98.2391 103.876 98.5417 108.295 103.378L136.403 134.142L189.595 144.53C191.678 144.937 193.831 144.774 195.828 144.058L232.319 130.981C239.994 128.231 248.076 133.919 248.076 142.072V160.978C248.076 167.485 242.801 172.76 236.294 172.76H166.859H46.3C35.6015 172.76 30.4412 159.65 38.2691 152.358Z" fill="url(#paint8_linear_395_30)"/>
<path d="M118.619 145.825L131.488 130.026C131.827 129.608 131.767 128.995 131.352 128.653C131.316 128.622 131.281 128.589 131.249 128.554L124.821 121.424L110.808 105.998C110.23 105.378 109.346 105.785 109.467 106.624C110.084 110.897 110.742 119.046 101.977 129.272C98.1814 133.7 97.1993 138.776 97.6521 143.573C98.712 154.802 111.496 154.57 118.619 145.825Z" fill="url(#paint9_linear_395_30)" fill-opacity="0.5"/>
<path d="M161.083 89.097L100.897 171.559C94.6714 180.088 100.763 192.076 111.323 192.076H235.68C246.423 192.076 252.465 179.719 245.867 171.241L181.695 88.7794C176.426 82.0085 166.14 82.167 161.083 89.097Z" fill="white"/>
<path d="M161.083 89.097L100.897 171.559C94.6714 180.088 100.763 192.076 111.323 192.076H235.68C246.423 192.076 252.465 179.719 245.867 171.241L181.695 88.7794C176.426 82.0085 166.14 82.167 161.083 89.097Z" fill="url(#paint10_linear_395_30)"/>
</g>
</g>
</g>
<defs>
<filter id="filter0_dd_395_30" x="24.1" y="27.1" width="212.8" height="221.8" filterUnits="userSpaceOnUse" color-interpolation-filters="sRGB">
<feFlood flood-opacity="0" result="BackgroundImageFix"/>
<feColorMatrix in="SourceAlpha" type="matrix" values="0 0 0 0 0 0 0 0 0 0 0 0 0 0 0 0 0 0 127 0" result="hardAlpha"/>
<feOffset dx="-13" dy="10"/>
<feGaussianBlur stdDeviation="5.45"/>
<feComposite in2="hardAlpha" operator="out"/>
<feColorMatrix type="matrix" values="0 0 0 0 0 0 0 0 0 0 0 0 0 0 0 0 0 0 0.125 0"/>
<feBlend mode="normal" in2="BackgroundImageFix" result="effect1_dropShadow_395_30"/>
<feColorMatrix in="SourceAlpha" type="matrix" values="0 0 0 0 0 0 0 0 0 0 0 0 0 0 0 0 0 0 127 0" result="hardAlpha"/>
<feOffset dx="18" dy="10"/>
<feGaussianBlur stdDeviation="5.45"/>
<feComposite in2="hardAlpha" operator="out"/>
<feColorMatrix type="matrix" values="0 0 0 0 0 0 0 0 0 0 0 0 0 0 0 0 0 0 0.125 0"/>
<feBlend mode="normal" in2="effect1_dropShadow_395_30" result="effect2_dropShadow_395_30"/>
<feBlend mode="normal" in="SourceGraphic" in2="effect2_dropShadow_395_30" result="shape"/>
</filter>
<linearGradient id="paint0_linear_395_30" x1="172.219" y1="29.2534" x2="172.219" y2="149.253" gradientUnits="userSpaceOnUse">
<stop stop-color="#0059FF"/>
<stop offset="1" stop-color="#94CFFF"/>
</linearGradient>
<linearGradient id="paint1_linear_395_30" x1="130.392" y1="24.4369" x2="137.002" y2="171.583" gradientUnits="userSpaceOnUse">
<stop stop-color="#A4BDFF"/>
<stop offset="1" stop-color="#FFD3B3"/>
</linearGradient>
<linearGradient id="paint2_linear_395_30" x1="111.59" y1="81.3127" x2="111.59" y2="113.764" gradientUnits="userSpaceOnUse">
<stop offset="0.22377" stop-color="#FFEDDE"/>
<stop offset="1" stop-color="#E9AE7A"/>
</linearGradient>
<linearGradient id="paint3_linear_395_30" x1="116.382" y1="91.4267" x2="74.0089" y2="171.829" gradientUnits="userSpaceOnUse">
<stop stop-color="#A2D2FF"/>
<stop offset="1" stop-color="#0075E2"/>
</linearGradient>
<linearGradient id="paint4_linear_395_30" x1="176.616" y1="104.583" x2="134.243" y2="184.984" gradientUnits="userSpaceOnUse">
<stop stop-color="#DEF0FF"/>
<stop offset="1" stop-color="#7AB5E9"/>
</linearGradient>
<linearGradient id="paint5_linear_395_30" x1="128" y1="43" x2="128" y2="173" gradientUnits="userSpaceOnUse">
<stop stop-color="#0059FF"/>
<stop offset="1" stop-color="#94CFFF"/>
</linearGradient>
<linearGradient id="paint6_linear_395_30" x1="65" y1="0" x2="65" y2="130" gradientUnits="userSpaceOnUse">
<stop stop-color="#0095FF"/>
<stop offset="1" stop-color="#0077FF"/>
</linearGradient>
<linearGradient id="paint7_linear_395_30" x1="95.5001" y1="63.3962" x2="95.5001" y2="88.8825" gradientUnits="userSpaceOnUse">
<stop stop-color="white"/>
<stop offset="1" stop-color="#87BDEC"/>
</linearGradient>
<linearGradient id="paint8_linear_395_30" x1="132.223" y1="95.5246" x2="132.223" y2="172.76" gradientUnits="userSpaceOnUse">
<stop stop-color="white"/>
<stop offset="1" stop-color="#87BDEC"/>
</linearGradient>
<linearGradient id="paint9_linear_395_30" x1="109.183" y1="105.242" x2="112.39" y2="141.77" gradientUnits="userSpaceOnUse">
<stop stop-color="#A2D2FF"/>
<stop offset="1" stop-color="#0075E2"/>
</linearGradient>
<linearGradient id="paint10_linear_395_30" x1="174.001" y1="86.8566" x2="174.001" y2="192.076" gradientUnits="userSpaceOnUse">
<stop stop-color="white"/>
<stop offset="1" stop-color="#87BDEC"/>
</linearGradient>
<clipPath id="clip0_395_30">
<rect x="63" y="43" width="130" height="130" rx="11.9167" fill="white"/>
</clipPath>
<clipPath id="clip1_395_30">
<rect width="130" height="130" fill="white" transform="translate(63 43)"/>
</clipPath>
</defs>
</svg>
