<svg width="256" height="256" viewBox="0 0 256 256" fill="none" xmlns="http://www.w3.org/2000/svg">
<path d="M0 73.3729C0 57.0218 13.2552 43.7667 29.6062 43.7667H61.6952C68.7327 43.7667 74.9083 39.0785 76.8 32.3V32.3C78.6917 25.5216 84.8673 20.8334 91.9048 20.8334H160.895C167.933 20.8334 174.108 25.5216 176 32.3V32.3C177.892 39.0785 184.067 43.7667 191.105 43.7667H226.394C242.745 43.7667 256 57.0219 256 73.3729V206.16C256 222.512 242.745 235.767 226.394 235.767H29.6062C13.2552 235.767 0 222.512 0 206.16V73.3729Z" fill="url(#paint0_linear_171_15)"/>
<path d="M0 73.3729C0 57.0218 13.2552 43.7667 29.6062 43.7667H61.6952C68.7327 43.7667 74.9083 39.0785 76.8 32.3V32.3C78.6917 25.5216 84.8673 20.8334 91.9048 20.8334H160.895C167.933 20.8334 174.108 25.5216 176 32.3V32.3C177.892 39.0785 184.067 43.7667 191.105 43.7667H226.394C242.745 43.7667 256 57.0219 256 73.3729V206.16C256 222.512 242.745 235.767 226.394 235.767H29.6062C13.2552 235.767 0 222.512 0 206.16V73.3729Z" fill="white" fill-opacity="0.06"/>
<circle cx="128" cy="135.5" r="56" fill="url(#paint1_radial_171_15)" stroke="#E6EDFF" stroke-width="21.3333"/>
<rect x="202.667" y="68.8334" width="32" height="32" rx="16" fill="url(#paint2_linear_171_15)"/>
<defs>
<linearGradient id="paint0_linear_171_15" x1="128" y1="20.8334" x2="128" y2="232.833" gradientUnits="userSpaceOnUse">
<stop stop-color="#2F3943"/>
<stop offset="1" stop-color="#1A2027"/>
</linearGradient>
<radialGradient id="paint1_radial_171_15" cx="0" cy="0" r="1" gradientUnits="userSpaceOnUse" gradientTransform="translate(128 135.5) rotate(90) scale(66.6667)">
<stop stop-color="#020407"/>
<stop offset="1" stop-color="#16243F"/>
</radialGradient>
<linearGradient id="paint2_linear_171_15" x1="202.667" y1="68.8334" x2="234.667" y2="100.833" gradientUnits="userSpaceOnUse">
<stop stop-color="#FF4D8D"/>
<stop offset="1" stop-color="#FF005C"/>
</linearGradient>
</defs>
</svg>
