<svg width="256" height="256" viewBox="0 0 256 256" fill="none" xmlns="http://www.w3.org/2000/svg">
<path d="M132.564 29.5143C132.681 14.4264 149.517 5.51114 162.062 13.8939L226.007 56.6216C233.983 61.9511 235.959 72.8272 230.368 80.622C225.033 88.0594 214.761 89.926 207.151 84.8408L167.116 58.0896L166.12 186.968L166.106 186.968C165.374 222.102 135.637 250.365 99.06 250.365C62.0238 250.365 32 221.387 32 185.641C32 149.895 62.0238 120.917 99.06 120.917C110.947 120.917 122.112 123.902 131.794 129.138L132.564 29.5143Z" fill="url(#paint0_linear_108_30)"/>
<defs>
<linearGradient id="paint0_linear_108_30" x1="148.5" y1="11" x2="136.97" y2="252.008" gradientUnits="userSpaceOnUse">
<stop stop-color="#FF6FB4"/>
<stop offset="1" stop-color="#FF2F61"/>
</linearGradient>
</defs>
</svg>
