<svg width="256" height="256" viewBox="0 0 256 256" fill="none" xmlns="http://www.w3.org/2000/svg">
<path d="M196.478 68.1739C196.478 59.2212 194.715 50.3561 191.289 42.0849C187.863 33.8136 182.841 26.2982 176.511 19.9677C170.18 13.6371 162.665 8.61549 154.393 5.18943C146.122 1.76337 137.257 -3.91336e-07 128.304 0C119.352 3.91336e-07 110.486 1.76337 102.215 5.18943C93.944 8.61549 86.4286 13.6371 80.098 19.9677C73.7675 26.2982 68.7459 33.8136 65.3198 42.0849C61.8937 50.3561 60.1304 59.2212 60.1304 68.1739H81.9837C81.9837 62.091 83.1818 56.0677 85.5096 50.4478C87.8374 44.8279 91.2494 39.7216 95.5507 35.4203C99.8519 31.119 104.958 27.7071 110.578 25.3792C116.198 23.0514 122.221 21.8533 128.304 21.8533C134.387 21.8533 140.411 23.0514 146.03 25.3792C151.65 27.7071 156.757 31.119 161.058 35.4203C165.359 39.7215 168.771 44.8279 171.099 50.4478C173.427 56.0677 174.625 62.091 174.625 68.1739H196.478Z" fill="url(#paint0_linear_74_66)"/>
<rect x="17" y="47.3044" width="222.609" height="208.696" rx="36.1739" fill="url(#paint1_linear_74_66)"/>
<circle cx="163.731" cy="110.672" r="29.6716" fill="url(#paint2_linear_74_66)"/>
<rect x="62" y="125.507" width="60.403" height="59.3433" rx="12.946" fill="url(#paint3_linear_74_66)"/>
<path d="M137.107 198.258C133.044 196.227 133.044 190.43 137.107 188.398L185.424 164.246C189.09 162.413 193.403 165.078 193.403 169.176V217.481C193.403 221.578 189.09 224.243 185.424 222.411L137.107 198.258Z" fill="url(#paint4_linear_74_66)"/>
<path d="M137.107 198.258C133.044 196.227 133.044 190.43 137.107 188.398L185.424 164.246C189.09 162.413 193.403 165.078 193.403 169.176V217.481C193.403 221.578 189.09 224.243 185.424 222.411L137.107 198.258Z" fill="url(#paint5_linear_74_66)"/>
<defs>
<linearGradient id="paint0_linear_74_66" x1="128.304" y1="0" x2="128.304" y2="136.348" gradientUnits="userSpaceOnUse">
<stop offset="0.1595" stop-color="#E3E3E3"/>
<stop offset="0.412008" stop-color="#B2CED9"/>
</linearGradient>
<linearGradient id="paint1_linear_74_66" x1="128.304" y1="47.3044" x2="128.304" y2="256" gradientUnits="userSpaceOnUse">
<stop offset="0.536736" stop-color="#F7FDFF"/>
<stop offset="1" stop-color="#B5D8E3"/>
</linearGradient>
<linearGradient id="paint2_linear_74_66" x1="164.003" y1="81" x2="164.003" y2="139.993" gradientUnits="userSpaceOnUse">
<stop stop-color="#2E43FF"/>
<stop offset="1" stop-color="#FF1AF6"/>
</linearGradient>
<linearGradient id="paint3_linear_74_66" x1="62" y1="155.801" x2="122.046" y2="155.801" gradientUnits="userSpaceOnUse">
<stop stop-color="#FF1A88"/>
<stop offset="1" stop-color="#FF951A"/>
</linearGradient>
<linearGradient id="paint4_linear_74_66" x1="128.279" y1="225.366" x2="193.215" y2="160.414" gradientUnits="userSpaceOnUse">
<stop stop-color="#00FFB3"/>
<stop offset="1" stop-color="#00FF57"/>
</linearGradient>
<linearGradient id="paint5_linear_74_66" x1="134.06" y1="193.95" x2="193.052" y2="193.95" gradientUnits="userSpaceOnUse">
<stop stop-color="#4BFFD4"/>
<stop offset="1" stop-color="#4B5DFF"/>
</linearGradient>
</defs>
</svg>
