<svg width="256" height="256" viewBox="0 0 256 256" fill="none" xmlns="http://www.w3.org/2000/svg">
<mask id="path-1-inside-1_108_19" fill="white">
<path d="M90.3235 21.2544C106.97 -7.08478 147.954 -7.08479 164.601 21.2544C172.277 34.3234 186.286 42.3948 201.443 42.5009C234.28 42.7306 254.819 78.2014 238.585 106.747C231.091 119.925 231.091 136.075 238.585 149.253C254.819 177.799 234.28 213.269 201.443 213.499C186.286 213.605 172.277 221.677 164.601 234.746C147.954 263.085 106.97 263.085 90.3235 234.746C82.6468 221.677 68.6379 213.605 53.4813 213.499C20.6438 213.269 0.105479 177.799 16.339 149.253C23.8333 136.075 23.8333 119.925 16.339 106.747C0.105477 78.2014 20.6438 42.7306 53.4813 42.5009C68.6379 42.3948 82.6468 34.3234 90.3235 21.2544Z"/>
</mask>
<path d="M90.3235 21.2544C106.97 -7.08478 147.954 -7.08479 164.601 21.2544C172.277 34.3234 186.286 42.3948 201.443 42.5009C234.28 42.7306 254.819 78.2014 238.585 106.747C231.091 119.925 231.091 136.075 238.585 149.253C254.819 177.799 234.28 213.269 201.443 213.499C186.286 213.605 172.277 221.677 164.601 234.746C147.954 263.085 106.97 263.085 90.3235 234.746C82.6468 221.677 68.6379 213.605 53.4813 213.499C20.6438 213.269 0.105479 177.799 16.339 149.253C23.8333 136.075 23.8333 119.925 16.339 106.747C0.105477 78.2014 20.6438 42.7306 53.4813 42.5009C68.6379 42.3948 82.6468 34.3234 90.3235 21.2544Z" fill="url(#paint0_linear_108_19)"/>
<path d="M53.4883 43.5008C68.9964 43.3924 83.3305 35.134 91.1858 21.7608L89.4613 20.7479C81.9632 33.5129 68.2793 41.3973 53.4743 41.5009L53.4883 43.5008ZM17.2083 106.252C1.35371 78.3735 21.4118 43.7252 53.4883 43.5008L53.4743 41.5009C19.8758 41.7359 -1.14276 78.0294 15.4698 107.241L17.2083 106.252ZM17.2083 149.748C24.8769 136.263 24.8769 119.737 17.2083 106.252L15.4698 107.241C22.7898 120.112 22.7898 135.888 15.4698 148.759L17.2083 149.748ZM53.4883 212.499C21.4118 212.275 1.35371 177.627 17.2083 149.748L15.4698 148.759C-1.14276 177.971 19.8758 214.264 53.4743 214.499L53.4883 212.499ZM91.1858 234.239C83.3305 220.866 68.9964 212.608 53.4883 212.499L53.4743 214.499C68.2793 214.603 81.9632 222.487 89.4613 235.252L91.1858 234.239ZM163.738 234.239C147.479 261.92 107.446 261.92 91.1858 234.239L89.4613 235.252C106.494 264.249 148.43 264.249 165.463 235.252L163.738 234.239ZM201.436 212.499C185.928 212.608 171.594 220.866 163.738 234.239L165.463 235.252C172.961 222.487 186.645 214.603 201.45 214.499L201.436 212.499ZM237.716 149.748C253.57 177.627 233.512 212.275 201.436 212.499L201.45 214.499C235.048 214.264 256.067 177.971 239.454 148.759L237.716 149.748ZM237.716 106.252C230.047 119.737 230.047 136.263 237.716 149.748L239.454 148.759C232.134 135.888 232.134 120.112 239.454 107.241L237.716 106.252ZM201.436 43.5008C233.512 43.7252 253.57 78.3735 237.716 106.252L239.454 107.241C256.067 78.0294 235.048 41.7359 201.45 41.5009L201.436 43.5008ZM163.738 21.7608C171.594 35.134 185.928 43.3924 201.436 43.5008L201.45 41.5009C186.645 41.3973 172.961 33.5129 165.463 20.7479L163.738 21.7608ZM165.463 20.7479C148.43 -8.24929 106.494 -8.24929 89.4613 20.7479L91.1858 21.7608C107.446 -5.92028 147.479 -5.92028 163.738 21.7608L165.463 20.7479Z" fill="#006180" fill-opacity="0.07" mask="url(#path-1-inside-1_108_19)"/>
<circle cx="127.329" cy="128" r="61.4791" fill="#5A6D7D"/>
<defs>
<linearGradient id="paint0_linear_108_19" x1="128" y1="-2.68712e-06" x2="122.928" y2="255.899" gradientUnits="userSpaceOnUse">
<stop offset="0.489276" stop-color="#EAFAFF"/>
<stop offset="1" stop-color="#94BAC6"/>
</linearGradient>
</defs>
</svg>
