<svg width="256" height="256" viewBox="0 0 256 256" fill="none" xmlns="http://www.w3.org/2000/svg">
<path fill-rule="evenodd" clip-rule="evenodd" d="M170.666 12.1907C150.469 12.1907 134.095 28.5643 134.095 48.7621V85.3336C134.095 105.531 150.469 121.905 170.666 121.905H207.238C227.436 121.905 243.809 105.531 243.809 85.3336V48.7622C243.809 28.5643 227.436 12.1907 207.238 12.1907H170.666ZM12.1907 48.7622C12.1907 28.5643 28.5643 12.1907 48.7622 12.1907H85.3336C105.531 12.1907 121.905 28.5643 121.905 48.7622V85.3336C121.905 105.531 105.531 121.905 85.3336 121.905H48.7622C28.5643 121.905 12.1907 105.531 12.1907 85.3336V48.7622ZM12.1907 170.666C12.1907 150.469 28.5643 134.095 48.7622 134.095H85.3336C105.531 134.095 121.905 150.469 121.905 170.666V207.238C121.905 227.436 105.531 243.809 85.3336 243.809H48.7621C28.5643 243.809 12.1907 227.436 12.1907 207.238V170.666Z" fill="url(#paint0_linear_179_55)" fill-opacity="0.8"/>
<rect x="134.095" y="134.095" width="109.714" height="109.714" rx="36.5714" fill="#D8F8FF" fill-opacity="0.45"/>
<defs>
<linearGradient id="paint0_linear_179_55" x1="128" y1="12.1907" x2="128" y2="243.809" gradientUnits="userSpaceOnUse">
<stop stop-color="#F2FCFF"/>
<stop offset="1" stop-color="#CCF3FF"/>
</linearGradient>
</defs>
</svg>
