<svg width="492" height="201" viewBox="0 0 492 201" fill="none" xmlns="http://www.w3.org/2000/svg">
<g clip-path="url(#clip0_143_2)">
<path d="M491.781 74.1416H203.392V196.622H491.781V74.1416Z" fill="#0094FF"/>
<path d="M27.7052 168.612C32.7007 168.612 36.9025 166.721 40.3086 162.94C43.7147 159.234 45.4182 154.432 45.4182 148.533C45.4182 142.709 43.7147 137.907 40.3086 134.126C36.9025 130.344 32.7007 128.453 27.7052 128.453C22.6336 128.453 18.3943 130.344 14.9879 134.126C11.6573 137.907 9.99197 142.709 9.99197 148.533C9.99197 154.432 11.6573 159.272 14.9879 163.053C18.3943 166.759 22.6336 168.612 27.7052 168.612ZM29.4077 178.141C25.321 178.141 21.5736 177.271 18.1672 175.532C14.8366 173.792 12.2628 171.486 10.4462 168.612H9.99197L10.4462 176.326V200.829H0V120.739H9.99197V128.453H10.4462C12.2628 125.579 14.8366 123.272 18.1672 121.533C21.5736 119.794 25.321 118.924 29.4077 118.924C36.7504 118.924 42.958 121.798 48.0296 127.545C53.2524 133.369 55.8647 140.365 55.8647 148.533C55.8647 156.776 53.2524 163.772 48.0296 169.519C42.958 175.267 36.7504 178.141 29.4077 178.141ZM73.0393 159.31C73.0393 162.032 74.1754 164.301 76.4464 166.116C78.7925 167.931 81.518 168.839 84.6208 168.839C89.0118 168.839 92.9104 167.213 96.3165 163.961C99.7986 160.709 101.539 156.89 101.539 152.503C98.2842 149.932 93.7431 148.646 87.9138 148.646C83.675 148.646 80.1178 149.667 77.2411 151.709C74.4406 153.751 73.0393 156.285 73.0393 159.31ZM86.5516 118.924C94.2726 118.924 100.366 121.004 104.832 125.163C109.298 129.247 111.531 134.882 111.531 142.066V176.326H101.539V168.612H101.086C96.7709 174.965 91.0176 178.141 83.8261 178.141C77.6955 178.141 72.5479 176.326 68.3841 172.696C64.2964 169.066 62.2525 164.528 62.2525 159.083C62.2525 153.335 64.4105 148.76 68.7254 145.356C73.1154 141.953 78.9437 140.251 86.2113 140.251C92.4179 140.251 97.5275 141.386 101.539 143.655V141.272C101.539 137.642 100.101 134.579 97.2253 132.084C94.3487 129.512 90.9796 128.226 87.1191 128.226C81.2908 128.226 76.6736 130.684 73.2665 135.6L64.0692 129.814C69.1418 122.554 76.6356 118.924 86.5516 118.924ZM123.314 120.739H133.306V128.453H133.759C135.35 125.73 137.772 123.462 141.027 121.646C144.357 119.831 147.801 118.924 151.359 118.924C158.172 118.924 163.395 120.89 167.029 124.823C170.738 128.68 172.593 134.201 172.593 141.386V176.326H162.146V142.066C161.919 132.991 157.339 128.453 148.407 128.453C144.244 128.453 140.762 130.155 137.961 133.558C135.16 136.886 133.759 140.894 133.759 145.583V176.326H123.314V120.739ZM191.907 159.31C191.907 162.032 193.043 164.301 195.313 166.116C197.66 167.931 200.385 168.839 203.489 168.839C207.88 168.839 211.777 167.213 215.184 163.961C218.667 160.709 220.407 156.89 220.407 152.503C217.152 149.932 212.61 148.646 206.782 148.646C202.543 148.646 198.985 149.667 196.108 151.709C193.308 153.751 191.907 156.285 191.907 159.31ZM205.42 118.924C213.141 118.924 219.234 121.004 223.7 125.163C228.166 129.247 230.399 134.882 230.399 142.066V176.326H220.407V168.612H219.953C215.638 174.965 209.886 178.141 202.694 178.141C196.562 178.141 191.416 176.326 187.252 172.696C183.164 169.066 181.12 164.528 181.12 159.083C181.12 153.335 183.277 148.76 187.592 145.356C191.983 141.953 197.812 140.251 205.078 140.251C211.286 140.251 216.395 141.386 220.407 143.655V141.272C220.407 137.642 218.969 134.579 216.092 132.084C213.216 129.512 209.848 128.226 205.987 128.226C200.159 128.226 195.541 130.684 192.134 135.6L182.937 129.814C188.009 122.554 195.503 118.924 205.42 118.924ZM252.627 176.326H242.181V120.739H252.173V128.453H252.627C254.217 125.73 256.639 123.462 259.894 121.646C263.225 119.831 266.518 118.924 269.773 118.924C273.861 118.924 277.456 119.869 280.56 121.76C283.664 123.651 285.934 126.26 287.372 129.587C291.99 122.478 298.386 118.924 306.561 118.924C312.995 118.924 317.954 120.89 321.436 124.823C324.918 128.755 326.659 134.352 326.659 141.613V176.326H316.213V143.201C316.213 137.983 315.266 134.239 313.375 131.97C311.482 129.625 308.302 128.453 303.836 128.453C299.824 128.453 296.456 130.155 293.731 133.558C291.005 136.962 289.643 140.97 289.643 145.583V176.326H279.197V143.201C279.197 137.983 278.251 134.239 276.358 131.97C274.466 129.625 271.286 128.453 266.82 128.453C262.809 128.453 259.441 130.155 256.715 133.558C253.99 136.962 252.627 140.97 252.627 145.583V176.326Z" fill="#0094FF"/>
<mask id="mask0_143_2" style="mask-type:alpha" maskUnits="userSpaceOnUse" x="202" y="74" width="290" height="123">
<path d="M492 74H202.737V197H492V74Z" fill="white"/>
</mask>
<g mask="url(#mask0_143_2)">
<path d="M27.7052 168.611C32.7007 168.611 36.9025 166.72 40.3086 162.939C43.7147 159.233 45.4182 154.431 45.4182 148.532C45.4182 142.708 43.7147 137.906 40.3086 134.125C36.9025 130.344 32.7007 128.453 27.7052 128.453C22.6336 128.453 18.3944 130.344 14.988 134.125C11.6574 137.906 9.99207 142.708 9.99207 148.532C9.99207 154.431 11.6574 159.271 14.988 163.052C18.3944 166.758 22.6336 168.611 27.7052 168.611ZM29.4087 178.14C25.321 178.14 21.5736 177.27 18.1673 175.531C14.8367 173.791 12.2629 171.485 10.4462 168.611H9.99207L10.4462 176.325V200.828H0V120.739H9.99207V128.453H10.4462C12.2629 125.579 14.8367 123.272 18.1673 121.533C21.5736 119.793 25.321 118.924 29.4087 118.924C36.7504 118.924 42.958 121.798 48.0296 127.545C53.2524 133.368 55.8647 140.364 55.8647 148.532C55.8647 156.775 53.2524 163.771 48.0296 169.518C42.958 175.266 36.7504 178.14 29.4087 178.14ZM73.0393 159.309C73.0393 162.031 74.1754 164.3 76.4464 166.115C78.7925 167.93 81.518 168.838 84.6218 168.838C89.0118 168.838 92.9104 167.212 96.3165 163.96C99.7986 160.708 101.539 156.889 101.539 152.502C98.2842 149.931 93.7431 148.645 87.9138 148.645C83.675 148.645 80.1178 149.666 77.2411 151.708C74.4406 153.75 73.0393 156.284 73.0393 159.309ZM86.5516 118.924C94.2726 118.924 100.366 121.004 104.832 125.163C109.298 129.247 111.531 134.881 111.531 142.065V176.325H101.539V168.611H101.086C96.7709 174.964 91.0176 178.14 83.8261 178.14C77.6955 178.14 72.5479 176.325 68.3841 172.695C64.2964 169.065 62.2525 164.527 62.2525 159.082C62.2525 153.334 64.4105 148.759 68.7254 145.355C73.1154 141.952 78.9437 140.25 86.2113 140.25C92.4179 140.25 97.5275 141.385 101.539 143.654V141.271C101.539 137.641 100.101 134.578 97.2253 132.083C94.3487 129.512 90.9796 128.226 87.1191 128.226C81.2908 128.226 76.6736 130.684 73.2665 135.599L64.0702 129.814C69.1418 122.554 76.6356 118.924 86.5516 118.924ZM123.314 120.739H133.306V128.453H133.759C135.35 125.73 137.772 123.461 141.027 121.646C144.357 119.831 147.801 118.924 151.359 118.924C158.172 118.924 163.395 120.89 167.029 124.823C170.738 128.68 172.593 134.2 172.593 141.385V176.325H162.146V142.065C161.919 132.99 157.34 128.453 148.407 128.453C144.244 128.453 140.762 130.155 137.961 133.557C135.161 136.885 133.759 140.893 133.759 145.582V176.325H123.314V120.739ZM191.907 159.309C191.907 162.031 193.043 164.3 195.313 166.115C197.66 167.93 200.385 168.838 203.489 168.838C207.88 168.838 211.778 167.212 215.184 163.96C218.667 160.708 220.407 156.889 220.407 152.502C217.152 149.931 212.61 148.645 206.782 148.645C202.543 148.645 198.985 149.666 196.109 151.708C193.308 153.75 191.907 156.284 191.907 159.309ZM205.42 118.924C213.141 118.924 219.234 121.004 223.7 125.163C228.166 129.247 230.399 134.881 230.399 142.065V176.325H220.407V168.611H219.953C215.639 174.964 209.886 178.14 202.694 178.14C196.562 178.14 191.416 176.325 187.252 172.695C183.164 169.065 181.12 164.527 181.12 159.082C181.12 153.334 183.278 148.759 187.592 145.355C191.983 141.952 197.812 140.25 205.078 140.25C211.286 140.25 216.395 141.385 220.407 143.654V141.271C220.407 137.641 218.969 134.578 216.092 132.083C213.216 129.512 209.848 128.226 205.987 128.226C200.159 128.226 195.541 130.684 192.134 135.599L182.937 129.814C188.009 122.554 195.503 118.924 205.42 118.924ZM252.627 176.325H242.181V120.739H252.173V128.453H252.627C254.217 125.73 256.639 123.461 259.894 121.646C263.225 119.831 266.518 118.924 269.773 118.924C273.861 118.924 277.456 119.869 280.56 121.76C283.664 123.651 285.934 126.26 287.372 129.587C291.99 122.478 298.386 118.924 306.561 118.924C312.995 118.924 317.954 120.89 321.436 124.823C324.918 128.755 326.659 134.351 326.659 141.612V176.325H316.213V143.2C316.213 137.982 315.266 134.238 313.375 131.969C311.482 129.625 308.303 128.453 303.836 128.453C299.824 128.453 296.456 130.155 293.731 133.557C291.006 136.961 289.643 140.969 289.643 145.582V176.325H279.197V143.2C279.197 137.982 278.251 134.238 276.358 131.969C274.466 129.625 271.286 128.453 266.82 128.453C262.809 128.453 259.441 130.155 256.715 133.557C253.99 136.961 252.627 140.969 252.627 145.582V176.325ZM352.384 101.567C352.384 103.609 351.665 105.349 350.227 106.785C348.789 108.222 347.047 108.941 345.003 108.941C342.959 108.941 341.219 108.222 339.781 106.785C338.342 105.349 337.624 103.609 337.624 101.567C337.624 99.5252 338.342 97.7858 339.781 96.3488C341.219 94.9119 342.959 94.1934 345.003 94.1934C347.047 94.1934 348.789 94.9119 350.227 96.3488C351.665 97.7858 352.384 99.5252 352.384 101.567ZM350.227 120.739V176.325H339.781V120.739H350.227ZM363.821 120.739H373.813V128.453H374.267C375.857 125.73 378.279 123.461 381.534 121.646C384.864 119.831 388.309 118.924 391.867 118.924C398.679 118.924 403.903 120.89 407.536 124.823C411.245 128.68 413.1 134.2 413.1 141.385V176.325H402.654V142.065C402.426 132.99 397.846 128.453 388.914 128.453C384.751 128.453 381.269 130.155 378.469 133.557C375.667 136.885 374.267 140.893 374.267 145.582V176.325H363.821V120.739ZM444.507 177.233C439.965 177.233 436.18 175.833 433.152 173.035C430.2 170.237 428.686 166.342 428.61 161.351V130.268H418.845V120.739H428.61V103.723H439.057V120.739H452.682V130.268H439.057V157.947C439.057 161.653 439.775 164.187 441.214 165.548C442.652 166.834 444.279 167.477 446.096 167.477C446.929 167.477 447.724 167.401 448.48 167.25C449.313 167.023 450.07 166.758 450.751 166.456L454.044 175.758C451.319 176.741 448.14 177.233 444.507 177.233Z" fill="white"/>
</g>
<g clip-path="url(#clip1_143_2)">
<path d="M149 31.1833L131.46 48.1035H101V36.3007H124.569L139.266 22.3124H149V31.1833Z" fill="#0094FF"/>
<path d="M111.485 25.7705H101V16.481L118.727 0.103516H149V12.3863H125.009L111.485 25.7705Z" fill="#0094FF"/>
<path d="M182.149 43.3063C178.696 43.3063 175.687 42.4924 173.122 40.8645C170.557 39.1874 168.56 36.9183 167.129 34.0574C165.699 31.147 164.983 27.8174 164.983 24.0685C164.983 20.369 165.699 17.064 167.129 14.1537C168.56 11.2434 170.582 8.97432 173.196 7.34651C175.811 5.66938 178.894 4.83081 182.445 4.83081C185.257 4.83081 187.699 5.37341 189.77 6.45862C191.892 7.49449 193.569 8.80167 194.802 10.3802L195.394 5.71871H205.161V42.4184H196.43L195.912 35.9811H195.616C194.235 38.2502 192.409 40.0506 190.14 41.3825C187.921 42.665 185.257 43.3063 182.149 43.3063ZM185.183 34.7973C187.156 34.7973 188.883 34.3533 190.362 33.4654C191.842 32.5282 192.977 31.2703 193.766 29.6919C194.605 28.0641 195.024 26.165 195.024 23.9945C195.024 21.8735 194.605 20.0237 193.766 18.4452C192.977 16.8174 191.842 15.5595 190.362 14.6716C188.883 13.7344 187.156 13.2658 185.183 13.2658C183.259 13.2658 181.557 13.7344 180.078 14.6716C178.598 15.5595 177.463 16.8174 176.674 18.4452C175.885 20.073 175.49 21.9228 175.49 23.9945C175.49 26.1156 175.885 27.9901 176.674 29.6179C177.463 31.2457 178.598 32.5282 180.078 33.4654C181.557 34.3533 183.259 34.7973 185.183 34.7973Z" fill="black"/>
<path d="M211.109 42.4184V5.71871H220.136L221.024 11.86H221.32C222.455 9.54159 224.009 7.79046 225.982 6.6066C228.004 5.42274 230.372 4.83081 233.085 4.83081C234.91 4.83081 236.587 5.07745 238.116 5.57072C239.645 6.064 241.002 6.82857 242.186 7.86445C243.419 8.90033 244.43 10.3062 245.219 12.082H245.515C246.897 9.81289 248.598 8.0371 250.621 6.75458C252.693 5.47207 255.307 4.83081 258.464 4.83081C261.325 4.83081 263.767 5.49673 265.789 6.82857C267.861 8.11109 269.464 10.0349 270.598 12.5999C271.733 15.1156 272.3 18.2232 272.3 21.9228V42.4184H262.015V22.8847C262.015 19.8757 261.423 17.582 260.24 16.0035C259.105 14.3757 257.28 13.5618 254.764 13.5618C253.186 13.5618 251.805 13.9071 250.621 14.5977C249.437 15.2882 248.5 16.3488 247.809 17.7793C247.168 19.1604 246.847 20.8622 246.847 22.8847V42.4184H236.562V22.8847C236.562 19.8757 235.97 17.582 234.787 16.0035C233.652 14.3757 231.827 13.5618 229.311 13.5618C227.881 13.5618 226.549 13.9564 225.316 14.7456C224.132 15.5349 223.195 16.6694 222.504 18.1492C221.813 19.6291 221.468 21.4049 221.468 23.4766V42.4184H211.109Z" fill="black"/>
<path d="M296.077 43.3063C292.279 43.3063 288.924 42.517 286.014 40.9385C283.104 39.3601 280.835 37.165 279.207 34.3533C277.579 31.4923 276.765 28.1874 276.765 24.4385C276.765 20.5909 277.554 17.212 279.133 14.3017C280.761 11.342 283.03 9.02365 285.94 7.34651C288.85 5.66938 292.229 4.83081 296.077 4.83081C299.727 4.83081 302.958 5.62005 305.77 7.19853C308.581 8.77701 310.776 10.9474 312.355 13.7098C313.933 16.4228 314.723 19.5304 314.723 23.0327C314.723 23.5259 314.698 24.0932 314.649 24.7345C314.649 25.3264 314.624 25.943 314.575 26.5842H284.164V20.369H304.216C304.068 18.1492 303.229 16.3734 301.7 15.0416C300.22 13.7098 298.346 13.0438 296.077 13.0438C294.4 13.0438 292.871 13.4138 291.489 14.1537C290.108 14.8936 288.998 16.0282 288.16 17.5573C287.371 19.0865 286.976 21.0349 286.976 23.4026V25.5484C286.976 27.4228 287.346 29.0753 288.086 30.5058C288.875 31.8869 289.936 32.9721 291.267 33.7614C292.649 34.5013 294.202 34.8713 295.929 34.8713C297.705 34.8713 299.184 34.5013 300.368 33.7614C301.552 32.9721 302.465 31.9609 303.106 30.7277H313.613C312.922 33.0955 311.738 35.2412 310.061 37.165C308.433 39.0394 306.411 40.5439 303.994 41.6785C301.626 42.7637 298.987 43.3063 296.077 43.3063Z" fill="black"/>
<path d="M336.892 43.3063C333.34 43.3063 330.134 42.4924 327.273 40.8645C324.461 39.1874 322.217 36.9183 320.54 34.0574C318.862 31.147 318.024 27.8174 318.024 24.0685C318.024 20.3196 318.862 16.99 320.54 14.0797C322.217 11.1694 324.486 8.90033 327.347 7.27252C330.208 5.64471 333.414 4.83081 336.966 4.83081C340.517 4.83081 343.724 5.64471 346.585 7.27252C349.446 8.90033 351.69 11.1694 353.318 14.0797C354.995 16.99 355.833 20.3196 355.833 24.0685C355.833 27.8174 354.995 31.147 353.318 34.0574C351.69 36.9183 349.421 39.1874 346.511 40.8645C343.65 42.4924 340.443 43.3063 336.892 43.3063ZM336.892 34.5753C338.47 34.5753 339.876 34.1807 341.109 33.3914C342.392 32.6022 343.403 31.443 344.143 29.9138C344.932 28.3354 345.327 26.3869 345.327 24.0685C345.327 21.7501 344.932 19.8017 344.143 18.2232C343.403 16.6447 342.392 15.4855 341.109 14.7456C339.876 13.9564 338.495 13.5618 336.966 13.5618C335.486 13.5618 334.105 13.9564 332.822 14.7456C331.54 15.4855 330.504 16.6447 329.715 18.2232C328.975 19.8017 328.605 21.7501 328.605 24.0685C328.605 26.3869 328.975 28.3354 329.715 29.9138C330.504 31.443 331.515 32.6022 332.748 33.3914C334.031 34.1807 335.412 34.5753 336.892 34.5753Z" fill="black"/>
<path d="M376.147 43.3063C372.843 43.3063 369.932 42.7637 367.417 41.6785C364.901 40.5932 362.878 39.1134 361.349 37.239C359.869 35.3152 359.006 33.1448 358.76 30.7277H369.044C369.291 31.5663 369.686 32.3556 370.228 33.0955C370.82 33.8354 371.585 34.452 372.522 34.9452C373.508 35.3892 374.668 35.6112 376 35.6112C377.282 35.6112 378.318 35.4385 379.107 35.0932C379.946 34.6986 380.562 34.23 380.957 33.6874C381.352 33.0955 381.549 32.4789 381.549 31.8376C381.549 30.9497 381.253 30.2591 380.661 29.7659C380.069 29.2233 379.206 28.7793 378.071 28.434C376.937 28.0394 375.605 27.6448 374.076 27.2502C372.448 26.8062 370.795 26.3376 369.118 25.8443C367.441 25.3017 365.912 24.6605 364.531 23.9206C363.15 23.1806 362.04 22.1941 361.201 20.9609C360.363 19.7277 359.943 18.1986 359.943 16.3734C359.943 14.2524 360.535 12.3286 361.719 10.6021C362.903 8.82634 364.63 7.4205 366.899 6.38463C369.168 5.34875 371.905 4.83081 375.112 4.83081C379.6 4.83081 383.152 5.86669 385.766 7.93844C388.43 9.96087 389.984 12.7479 390.428 16.2995H380.735C380.488 15.1156 379.872 14.203 378.885 13.5618C377.899 12.9205 376.641 12.5999 375.112 12.5999C373.434 12.5999 372.152 12.9205 371.264 13.5618C370.376 14.1537 369.932 14.8936 369.932 15.7815C369.932 16.4228 370.228 16.99 370.82 17.4833C371.412 17.9273 372.275 18.3219 373.41 18.6672C374.544 19.0125 375.901 19.4071 377.479 19.851C380.192 20.5416 382.609 21.2815 384.73 22.0708C386.901 22.86 388.627 23.9452 389.91 25.3264C391.242 26.6582 391.908 28.582 391.908 31.0977C391.957 33.4161 391.316 35.5125 389.984 37.387C388.701 39.2121 386.876 40.6672 384.508 41.7524C382.19 42.7883 379.403 43.3063 376.147 43.3063Z" fill="black"/>
</g>
</g>
<defs>
<clipPath id="clip0_143_2">
<rect width="492" height="200.702" fill="white" transform="translate(0 0.126465)"/>
</clipPath>
<clipPath id="clip1_143_2">
<rect width="289.972" height="48" fill="white" transform="translate(101 0.126465)"/>
</clipPath>
</defs>
</svg>
