<svg width="492" height="201" viewBox="0 0 492 201" fill="none" xmlns="http://www.w3.org/2000/svg">
<path fill-rule="evenodd" clip-rule="evenodd" d="M203.483 74.1416H492.001V196.622H203.483V178.13C210.353 177.93 215.876 174.758 220.051 168.611H220.506V176.325H230.503V142.065C230.503 134.881 228.268 129.247 223.8 125.163C219.332 121.004 213.236 118.924 205.512 118.924C204.824 118.924 204.148 118.941 203.483 118.976V74.1416ZM203.483 128.399C198.86 129.037 195.106 131.438 192.221 135.599L183.019 129.814C187.741 123.057 194.562 119.445 203.483 118.976V128.399ZM203.483 140.282C204.037 140.261 204.599 140.25 205.17 140.25C211.381 140.25 216.493 141.385 220.506 143.654V141.271C220.506 137.641 219.067 134.578 216.189 132.083C213.311 129.512 209.942 128.226 206.079 128.226C205.186 128.226 204.32 128.284 203.483 128.399V140.282ZM203.483 148.884V140.282C196.993 140.528 191.724 142.22 187.677 145.355C183.361 148.759 181.202 153.334 181.202 159.082C181.202 164.527 183.247 169.065 187.336 172.695C191.502 176.325 196.651 178.14 202.785 178.14C203.019 178.14 203.252 178.137 203.483 178.13V168.838C203.515 168.838 203.548 168.838 203.58 168.838C207.973 168.838 211.873 167.212 215.281 163.96C218.765 160.708 220.506 156.889 220.506 152.502C217.25 149.931 212.705 148.645 206.875 148.645C205.691 148.645 204.56 148.725 203.483 148.884ZM203.483 148.884V168.838C200.418 168.819 197.725 167.912 195.401 166.115C193.13 164.3 191.993 162.031 191.993 159.309C191.993 156.284 193.394 153.75 196.197 151.708C198.271 150.236 200.7 149.295 203.483 148.884ZM40.3275 162.939C36.9199 166.72 32.7162 168.611 27.7184 168.611C22.6446 168.611 18.4035 166.758 14.9956 163.052C11.6635 159.271 9.99749 154.431 9.99749 148.532C9.99749 142.708 11.6635 137.906 14.9956 134.125C18.4035 130.344 22.6446 128.453 27.7184 128.453C32.7162 128.453 36.9199 130.344 40.3275 134.125C43.7351 137.906 45.4394 142.708 45.4394 148.532C45.4394 154.431 43.7351 159.233 40.3275 162.939ZM18.1763 175.531C21.5841 177.27 25.3332 178.14 29.4227 178.14C36.7677 178.14 42.9781 175.266 48.0519 169.518C53.277 163.771 55.8905 156.775 55.8905 148.532C55.8905 140.364 53.277 133.368 48.0519 127.545C42.9781 121.798 36.7677 118.924 29.4227 118.924C25.3332 118.924 21.5841 119.793 18.1763 121.533C14.8442 123.272 12.2694 125.579 10.4518 128.453H9.99749V120.739H0.000976562V200.828H10.4518V176.325L9.99749 168.611H10.4518C12.2694 171.485 14.8442 173.791 18.1763 175.531ZM76.4813 166.115C74.2093 164.3 73.0727 162.031 73.0727 159.309C73.0727 156.284 74.4746 153.75 77.2764 151.708C80.1543 149.666 83.7131 148.645 87.9538 148.645C93.7857 148.645 98.3289 149.931 101.585 152.502C101.585 156.889 99.8439 160.708 96.3602 163.96C92.9526 167.212 89.0523 168.838 84.6604 168.838C81.5552 168.838 78.8285 167.93 76.4813 166.115ZM104.88 125.163C100.412 121.004 94.3154 118.924 86.591 118.924C76.6706 118.924 69.1735 122.554 64.0996 129.814L73.3 135.599C76.7086 130.684 81.3279 128.226 87.1588 128.226C91.021 128.226 94.3915 129.512 97.2694 132.083C100.146 134.578 101.585 137.641 101.585 141.271V143.654C97.5718 141.385 92.4599 140.25 86.2505 140.25C78.9797 140.25 73.1488 141.952 68.7569 145.355C64.4401 148.759 62.2812 153.334 62.2812 159.082C62.2812 164.527 64.3259 169.065 68.4154 172.695C72.5811 176.325 77.731 178.14 83.8643 178.14C91.059 178.14 96.8148 174.964 101.132 168.611H101.585V176.325H111.582V142.065C111.582 134.881 109.348 129.247 104.88 125.163ZM133.366 120.739H123.37V176.325H133.82V145.582C133.82 140.893 135.222 136.885 138.024 133.557C140.825 130.155 144.309 128.453 148.474 128.453C157.411 128.453 161.992 132.99 162.219 142.065V176.325H172.67V141.385C172.67 134.2 170.815 128.68 167.104 124.823C163.469 120.89 158.243 118.924 151.428 118.924C147.868 118.924 144.422 119.831 141.091 121.646C137.834 123.461 135.411 125.73 133.82 128.453H133.366V120.739ZM242.289 176.325H252.741V145.582C252.741 140.969 254.103 136.961 256.83 133.557C259.557 130.155 262.926 128.453 266.94 128.453C271.408 128.453 274.589 129.625 276.482 131.969C278.375 134.238 279.322 137.982 279.322 143.2V176.325H289.773V145.582C289.773 140.969 291.136 136.961 293.862 133.557C296.589 130.155 299.958 128.453 303.972 128.453C308.441 128.453 311.621 129.625 313.515 131.969C315.407 134.238 316.355 137.982 316.355 143.2V176.325H326.805V141.612C326.805 134.351 325.063 128.755 321.58 124.823C318.096 120.89 313.135 118.924 306.699 118.924C298.519 118.924 292.121 122.478 287.501 129.587C286.062 126.26 283.791 123.651 280.685 121.76C277.58 119.869 273.983 118.924 269.894 118.924C266.637 118.924 263.343 119.831 260.01 121.646C256.754 123.461 254.331 125.73 252.741 128.453H252.286V120.739H242.289V176.325ZM350.384 106.785C351.822 105.349 352.541 103.609 352.541 101.567C352.541 99.5252 351.822 97.7858 350.384 96.3488C348.945 94.9119 347.202 94.1934 345.157 94.1934C343.113 94.1934 341.371 94.9119 339.932 96.3488C338.493 97.7858 337.775 99.5252 337.775 101.567C337.775 103.609 338.493 105.349 339.932 106.785C341.371 108.222 343.113 108.941 345.157 108.941C347.202 108.941 348.945 108.222 350.384 106.785ZM350.384 176.325V120.739H339.932V176.325H350.384ZM373.98 120.739H363.984V176.325H374.434V145.582C374.434 140.893 375.835 136.885 378.638 133.557C381.44 130.155 384.923 128.453 389.088 128.453C398.024 128.453 402.606 132.99 402.833 142.065V176.325H413.285V141.385C413.285 134.2 411.429 128.68 407.718 124.823C404.083 120.89 398.857 118.924 392.042 118.924C388.482 118.924 385.036 119.831 381.705 121.646C378.448 123.461 376.025 125.73 374.434 128.453H373.98V120.739ZM433.346 173.035C436.375 175.833 440.161 177.233 444.705 177.233C448.34 177.233 451.52 176.741 454.247 175.758L450.953 166.456C450.271 166.758 449.514 167.023 448.68 167.25C447.923 167.401 447.128 167.477 446.295 167.477C444.478 167.477 442.849 166.834 441.411 165.548C439.972 164.187 439.253 161.653 439.253 157.947V130.268H452.884V120.739H439.253V103.723H428.802V120.739H419.032V130.268H428.802V161.351C428.878 166.342 430.392 170.237 433.346 173.035Z" fill="black"/>
<path fill-rule="evenodd" clip-rule="evenodd" d="M203.482 74.1416H492V196.622H203.482V177.937C210.352 177.737 215.875 174.564 220.051 168.418H220.505V176.132H230.502V141.872C230.502 134.688 228.268 129.054 223.8 124.97C219.332 120.81 213.236 118.73 205.511 118.73C204.823 118.73 204.147 118.748 203.482 118.783V74.1416ZM203.482 128.206V140.089C204.036 140.068 204.598 140.057 205.17 140.057C211.38 140.057 216.492 141.192 220.505 143.461V141.078C220.505 137.448 219.066 134.385 216.189 131.89C213.311 129.318 209.941 128.033 206.079 128.033C205.185 128.033 204.319 128.09 203.482 128.206ZM203.482 168.645V148.691C204.56 148.532 205.69 148.452 206.874 148.452C212.705 148.452 217.249 149.738 220.505 152.309C220.505 156.696 218.764 160.515 215.28 163.767C211.873 167.019 207.972 168.645 203.58 168.645C203.547 168.645 203.515 168.645 203.482 168.645ZM242.289 176.132H252.74V145.389C252.74 140.776 254.103 136.768 256.829 133.364C259.556 129.961 262.926 128.26 266.939 128.26C271.407 128.26 274.588 129.432 276.481 131.776C278.375 134.045 279.322 137.789 279.322 143.007V176.132H289.772V145.389C289.772 140.776 291.136 136.768 293.862 133.364C296.588 129.961 299.958 128.26 303.971 128.26C308.44 128.26 311.621 129.432 313.514 131.776C315.407 134.045 316.354 137.789 316.354 143.007V176.132H326.804V141.419C326.804 134.158 325.063 128.562 321.579 124.629C318.095 120.697 313.135 118.73 306.698 118.73C298.519 118.73 292.12 122.285 287.5 129.394C286.061 126.066 283.79 123.457 280.685 121.566C277.58 119.676 273.983 118.73 269.893 118.73C266.637 118.73 263.342 119.638 260.01 121.453C256.753 123.268 254.33 125.537 252.74 128.26H252.285V120.545H242.289V176.132ZM350.383 106.592C351.822 105.155 352.541 103.416 352.541 101.374C352.541 99.3318 351.822 97.5924 350.383 96.1554C348.944 94.7185 347.202 94 345.157 94C343.112 94 341.371 94.7185 339.932 96.1554C338.493 97.5924 337.774 99.3318 337.774 101.374C337.774 103.416 338.493 105.155 339.932 106.592C341.371 108.029 343.112 108.748 345.157 108.748C347.202 108.748 348.944 108.029 350.383 106.592ZM350.383 176.132V120.545H339.932V176.132H350.383ZM373.98 120.545H363.983V176.132H374.433V145.389C374.433 140.7 375.834 136.692 378.637 133.364C381.439 129.961 384.923 128.26 389.087 128.26C398.023 128.26 402.606 132.797 402.833 141.872V176.132H413.284V141.192C413.284 134.007 411.428 128.486 407.717 124.629C404.083 120.697 398.856 118.73 392.041 118.73C388.481 118.73 385.036 119.638 381.704 121.453C378.448 123.268 376.025 125.537 374.433 128.26H373.98V120.545ZM433.345 172.842C436.374 175.64 440.16 177.04 444.704 177.04C448.339 177.04 451.52 176.548 454.246 175.565L450.952 166.263C450.27 166.565 449.513 166.83 448.68 167.057C447.923 167.208 447.128 167.284 446.295 167.284C444.477 167.284 442.849 166.641 441.41 165.355C439.971 163.994 439.252 161.46 439.252 157.754V130.075H452.883V120.545H439.252V103.529H428.801V120.545H419.032V130.075H428.801V161.158C428.877 166.149 430.391 170.044 433.345 172.842Z" fill="black"/>
<g clip-path="url(#clip0_340_50)">
<path d="M149.138 31.1833L131.597 48.1035H101.138V36.3007H124.706L139.403 22.3124H149.138V31.1833Z" fill="black"/>
<path d="M111.623 25.7705H101.138V16.481L118.864 0.103516H149.138V12.3863H125.146L111.623 25.7705Z" fill="black"/>
<path d="M182.287 43.3063C178.834 43.3063 175.825 42.4924 173.26 40.8645C170.695 39.1874 168.697 36.9183 167.267 34.0574C165.836 31.147 165.121 27.8174 165.121 24.0685C165.121 20.369 165.836 17.064 167.267 14.1537C168.697 11.2434 170.72 8.97432 173.334 7.34651C175.948 5.66938 179.031 4.83081 182.583 4.83081C185.395 4.83081 187.836 5.37341 189.908 6.45862C192.029 7.49449 193.706 8.80167 194.94 10.3802L195.531 5.71871H205.298V42.4184H196.567L196.049 35.9811H195.753C194.372 38.2502 192.547 40.0506 190.278 41.3825C188.058 42.665 185.395 43.3063 182.287 43.3063ZM185.321 34.7973C187.294 34.7973 189.02 34.3533 190.5 33.4654C191.98 32.5282 193.114 31.2703 193.904 29.6919C194.742 28.0641 195.162 26.165 195.162 23.9945C195.162 21.8735 194.742 20.0237 193.904 18.4452C193.114 16.8174 191.98 15.5595 190.5 14.6716C189.02 13.7344 187.294 13.2658 185.321 13.2658C183.397 13.2658 181.695 13.7344 180.215 14.6716C178.735 15.5595 177.601 16.8174 176.812 18.4452C176.022 20.073 175.628 21.9228 175.628 23.9945C175.628 26.1156 176.022 27.9901 176.812 29.6179C177.601 31.2457 178.735 32.5282 180.215 33.4654C181.695 34.3533 183.397 34.7973 185.321 34.7973Z" fill="black"/>
<path d="M211.247 42.4184V5.71871H220.274L221.162 11.86H221.458C222.592 9.54159 224.146 7.79046 226.119 6.6066C228.142 5.42274 230.51 4.83081 233.223 4.83081C235.048 4.83081 236.725 5.07745 238.254 5.57072C239.783 6.064 241.14 6.82857 242.323 7.86445C243.557 8.90033 244.568 10.3062 245.357 12.082H245.653C247.034 9.81289 248.736 8.0371 250.758 6.75458C252.83 5.47207 255.445 4.83081 258.602 4.83081C261.463 4.83081 263.904 5.49673 265.927 6.82857C267.998 8.11109 269.602 10.0349 270.736 12.5999C271.871 15.1156 272.438 18.2232 272.438 21.9228V42.4184H262.153V22.8847C262.153 19.8757 261.561 17.582 260.377 16.0035C259.243 14.3757 257.418 13.5618 254.902 13.5618C253.323 13.5618 251.942 13.9071 250.758 14.5977C249.575 15.2882 248.637 16.3488 247.947 17.7793C247.306 19.1604 246.985 20.8622 246.985 22.8847V42.4184H236.7V22.8847C236.7 19.8757 236.108 17.582 234.924 16.0035C233.79 14.3757 231.965 13.5618 229.449 13.5618C228.018 13.5618 226.687 13.9564 225.453 14.7456C224.27 15.5349 223.332 16.6694 222.642 18.1492C221.951 19.6291 221.606 21.4049 221.606 23.4766V42.4184H211.247Z" fill="black"/>
<path d="M296.215 43.3063C292.416 43.3063 289.062 42.517 286.152 40.9385C283.241 39.3601 280.972 37.165 279.345 34.3533C277.717 31.4923 276.903 28.1874 276.903 24.4385C276.903 20.5909 277.692 17.212 279.271 14.3017C280.898 11.342 283.167 9.02365 286.078 7.34651C288.988 5.66938 292.367 4.83081 296.215 4.83081C299.865 4.83081 303.096 5.62005 305.907 7.19853C308.719 8.77701 310.914 10.9474 312.493 13.7098C314.071 16.4228 314.86 19.5304 314.86 23.0327C314.86 23.5259 314.836 24.0932 314.786 24.7345C314.786 25.3264 314.762 25.943 314.712 26.5842H284.302V20.369H304.354C304.206 18.1492 303.367 16.3734 301.838 15.0416C300.358 13.7098 298.484 13.0438 296.215 13.0438C294.537 13.0438 293.008 13.4138 291.627 14.1537C290.246 14.8936 289.136 16.0282 288.297 17.5573C287.508 19.0865 287.114 21.0349 287.114 23.4026V25.5484C287.114 27.4228 287.484 29.0753 288.223 30.5058C289.013 31.8869 290.073 32.9721 291.405 33.7614C292.786 34.5013 294.34 34.8713 296.067 34.8713C297.842 34.8713 299.322 34.5013 300.506 33.7614C301.69 32.9721 302.602 31.9609 303.244 30.7277H313.75C313.06 33.0955 311.876 35.2412 310.199 37.165C308.571 39.0394 306.549 40.5439 304.132 41.6785C301.764 42.7637 299.125 43.3063 296.215 43.3063Z" fill="black"/>
<path d="M337.029 43.3063C333.478 43.3063 330.271 42.4924 327.41 40.8645C324.599 39.1874 322.354 36.9183 320.677 34.0574C319 31.147 318.162 27.8174 318.162 24.0685C318.162 20.3196 319 16.99 320.677 14.0797C322.354 11.1694 324.623 8.90033 327.484 7.27252C330.345 5.64471 333.552 4.83081 337.103 4.83081C340.655 4.83081 343.861 5.64471 346.722 7.27252C349.583 8.90033 351.828 11.1694 353.455 14.0797C355.133 16.99 355.971 20.3196 355.971 24.0685C355.971 27.8174 355.133 31.147 353.455 34.0574C351.828 36.9183 349.559 39.1874 346.648 40.8645C343.787 42.4924 340.581 43.3063 337.029 43.3063ZM337.029 34.5753C338.608 34.5753 340.014 34.1807 341.247 33.3914C342.529 32.6022 343.541 31.443 344.28 29.9138C345.07 28.3354 345.464 26.3869 345.464 24.0685C345.464 21.7501 345.07 19.8017 344.28 18.2232C343.541 16.6447 342.529 15.4855 341.247 14.7456C340.014 13.9564 338.633 13.5618 337.103 13.5618C335.624 13.5618 334.242 13.9564 332.96 14.7456C331.677 15.4855 330.641 16.6447 329.852 18.2232C329.112 19.8017 328.742 21.7501 328.742 24.0685C328.742 26.3869 329.112 28.3354 329.852 29.9138C330.641 31.443 331.653 32.6022 332.886 33.3914C334.168 34.1807 335.55 34.5753 337.029 34.5753Z" fill="black"/>
<path d="M376.285 43.3063C372.98 43.3063 370.07 42.7637 367.554 41.6785C365.039 40.5932 363.016 39.1134 361.487 37.239C360.007 35.3152 359.144 33.1448 358.897 30.7277H369.182C369.429 31.5663 369.823 32.3556 370.366 33.0955C370.958 33.8354 371.722 34.452 372.66 34.9452C373.646 35.3892 374.805 35.6112 376.137 35.6112C377.42 35.6112 378.456 35.4385 379.245 35.0932C380.083 34.6986 380.7 34.23 381.095 33.6874C381.489 33.0955 381.687 32.4789 381.687 31.8376C381.687 30.9497 381.391 30.2591 380.799 29.7659C380.207 29.2233 379.343 28.7793 378.209 28.434C377.074 28.0394 375.743 27.6448 374.213 27.2502C372.586 26.8062 370.933 26.3376 369.256 25.8443C367.579 25.3017 366.05 24.6605 364.669 23.9206C363.287 23.1806 362.178 22.1941 361.339 20.9609C360.5 19.7277 360.081 18.1986 360.081 16.3734C360.081 14.2524 360.673 12.3286 361.857 10.6021C363.041 8.82634 364.767 7.4205 367.036 6.38463C369.305 5.34875 372.043 4.83081 375.249 4.83081C379.738 4.83081 383.29 5.86669 385.904 7.93844C388.568 9.96087 390.122 12.7479 390.565 16.2995H380.873C380.626 15.1156 380.009 14.203 379.023 13.5618C378.036 12.9205 376.778 12.5999 375.249 12.5999C373.572 12.5999 372.29 12.9205 371.402 13.5618C370.514 14.1537 370.07 14.8936 370.07 15.7815C370.07 16.4228 370.366 16.99 370.958 17.4833C371.55 17.9273 372.413 18.3219 373.548 18.6672C374.682 19.0125 376.039 19.4071 377.617 19.851C380.33 20.5416 382.747 21.2815 384.868 22.0708C387.039 22.86 388.765 23.9452 390.048 25.3264C391.379 26.6582 392.045 28.582 392.045 31.0977C392.095 33.4161 391.453 35.5125 390.122 37.387C388.839 39.2121 387.014 40.6672 384.646 41.7524C382.328 42.7883 379.541 43.3063 376.285 43.3063Z" fill="black"/>
</g>
<defs>
<clipPath id="clip0_340_50">
<rect width="290.364" height="48" fill="white" transform="translate(101.138 0.126465)"/>
</clipPath>
</defs>
</svg>
