<svg width="492" height="201" viewBox="0 0 492 201" fill="none" xmlns="http://www.w3.org/2000/svg">
<path d="M491.781 74.1416H203.392V196.622H491.781V74.1416Z" fill="#0094FF"/>
<path d="M27.7052 168.612C32.7007 168.612 36.9025 166.721 40.3086 162.94C43.7147 159.234 45.4182 154.432 45.4182 148.533C45.4182 142.709 43.7147 137.907 40.3086 134.126C36.9025 130.344 32.7007 128.453 27.7052 128.453C22.6336 128.453 18.3943 130.344 14.9879 134.126C11.6573 137.907 9.99197 142.709 9.99197 148.533C9.99197 154.432 11.6573 159.272 14.9879 163.053C18.3943 166.759 22.6336 168.612 27.7052 168.612ZM29.4077 178.141C25.321 178.141 21.5736 177.271 18.1672 175.532C14.8366 173.792 12.2628 171.486 10.4462 168.612H9.99197L10.4462 176.326V200.829H0V120.739H9.99197V128.453H10.4462C12.2628 125.579 14.8366 123.272 18.1672 121.533C21.5736 119.794 25.321 118.924 29.4077 118.924C36.7504 118.924 42.958 121.798 48.0296 127.545C53.2524 133.369 55.8647 140.365 55.8647 148.533C55.8647 156.776 53.2524 163.772 48.0296 169.519C42.958 175.267 36.7504 178.141 29.4077 178.141ZM73.0393 159.31C73.0393 162.032 74.1754 164.301 76.4464 166.116C78.7925 167.931 81.518 168.839 84.6208 168.839C89.0118 168.839 92.9104 167.213 96.3165 163.961C99.7986 160.709 101.539 156.89 101.539 152.503C98.2842 149.932 93.7431 148.646 87.9138 148.646C83.675 148.646 80.1178 149.667 77.2411 151.709C74.4406 153.751 73.0393 156.285 73.0393 159.31ZM86.5516 118.924C94.2726 118.924 100.366 121.004 104.832 125.163C109.298 129.247 111.531 134.882 111.531 142.066V176.326H101.539V168.612H101.086C96.7709 174.965 91.0176 178.141 83.8261 178.141C77.6955 178.141 72.5479 176.326 68.3841 172.696C64.2964 169.066 62.2525 164.528 62.2525 159.083C62.2525 153.335 64.4105 148.76 68.7254 145.356C73.1154 141.953 78.9437 140.251 86.2113 140.251C92.4179 140.251 97.5275 141.386 101.539 143.655V141.272C101.539 137.642 100.101 134.579 97.2253 132.084C94.3487 129.512 90.9796 128.226 87.1191 128.226C81.2908 128.226 76.6736 130.684 73.2665 135.6L64.0692 129.814C69.1418 122.554 76.6356 118.924 86.5516 118.924ZM123.314 120.739H133.306V128.453H133.759C135.35 125.73 137.772 123.462 141.027 121.646C144.357 119.831 147.801 118.924 151.359 118.924C158.172 118.924 163.395 120.89 167.029 124.823C170.738 128.68 172.593 134.201 172.593 141.386V176.326H162.146V142.066C161.919 132.991 157.339 128.453 148.407 128.453C144.244 128.453 140.762 130.155 137.961 133.558C135.16 136.886 133.759 140.894 133.759 145.583V176.326H123.314V120.739ZM191.907 159.31C191.907 162.032 193.043 164.301 195.313 166.116C197.66 167.931 200.385 168.839 203.489 168.839C207.88 168.839 211.777 167.213 215.184 163.961C218.667 160.709 220.407 156.89 220.407 152.503C217.152 149.932 212.61 148.646 206.782 148.646C202.543 148.646 198.985 149.667 196.108 151.709C193.308 153.751 191.907 156.285 191.907 159.31ZM205.42 118.924C213.141 118.924 219.234 121.004 223.7 125.163C228.166 129.247 230.399 134.882 230.399 142.066V176.326H220.407V168.612H219.953C215.638 174.965 209.886 178.141 202.694 178.141C196.562 178.141 191.416 176.326 187.252 172.696C183.164 169.066 181.12 164.528 181.12 159.083C181.12 153.335 183.277 148.76 187.592 145.356C191.983 141.953 197.812 140.251 205.078 140.251C211.286 140.251 216.395 141.386 220.407 143.655V141.272C220.407 137.642 218.969 134.579 216.092 132.084C213.216 129.512 209.848 128.226 205.987 128.226C200.159 128.226 195.541 130.684 192.134 135.6L182.937 129.814C188.009 122.554 195.503 118.924 205.42 118.924ZM252.627 176.326H242.181V120.739H252.173V128.453H252.627C254.217 125.73 256.639 123.462 259.894 121.646C263.225 119.831 266.518 118.924 269.773 118.924C273.861 118.924 277.456 119.869 280.56 121.76C283.664 123.651 285.934 126.26 287.372 129.587C291.99 122.478 298.386 118.924 306.561 118.924C312.995 118.924 317.954 120.89 321.436 124.823C324.918 128.755 326.659 134.352 326.659 141.613V176.326H316.213V143.201C316.213 137.983 315.266 134.239 313.375 131.97C311.482 129.625 308.302 128.453 303.836 128.453C299.824 128.453 296.456 130.155 293.731 133.558C291.005 136.962 289.643 140.97 289.643 145.583V176.326H279.197V143.201C279.197 137.983 278.251 134.239 276.358 131.97C274.466 129.625 271.286 128.453 266.82 128.453C262.809 128.453 259.441 130.155 256.715 133.558C253.99 136.962 252.627 140.97 252.627 145.583V176.326Z" fill="#0094FF"/>
<mask id="mask0_143_4" style="mask-type:alpha" maskUnits="userSpaceOnUse" x="202" y="74" width="290" height="123">
<path d="M492 74H202.737V197H492V74Z" fill="white"/>
</mask>
<g mask="url(#mask0_143_4)">
<path d="M27.7052 168.611C32.7007 168.611 36.9025 166.72 40.3086 162.939C43.7147 159.233 45.4182 154.431 45.4182 148.532C45.4182 142.708 43.7147 137.906 40.3086 134.125C36.9025 130.344 32.7007 128.453 27.7052 128.453C22.6336 128.453 18.3944 130.344 14.988 134.125C11.6574 137.906 9.99207 142.708 9.99207 148.532C9.99207 154.431 11.6574 159.271 14.988 163.052C18.3944 166.758 22.6336 168.611 27.7052 168.611ZM29.4087 178.14C25.321 178.14 21.5736 177.27 18.1673 175.531C14.8367 173.791 12.2629 171.485 10.4462 168.611H9.99207L10.4462 176.325V200.828H0V120.739H9.99207V128.453H10.4462C12.2629 125.579 14.8367 123.272 18.1673 121.533C21.5736 119.793 25.321 118.924 29.4087 118.924C36.7504 118.924 42.958 121.798 48.0296 127.545C53.2524 133.368 55.8647 140.364 55.8647 148.532C55.8647 156.775 53.2524 163.771 48.0296 169.518C42.958 175.266 36.7504 178.14 29.4087 178.14ZM73.0393 159.309C73.0393 162.031 74.1754 164.3 76.4464 166.115C78.7925 167.93 81.518 168.838 84.6218 168.838C89.0118 168.838 92.9104 167.212 96.3165 163.96C99.7986 160.708 101.539 156.889 101.539 152.502C98.2842 149.931 93.7431 148.645 87.9138 148.645C83.675 148.645 80.1178 149.666 77.2411 151.708C74.4406 153.75 73.0393 156.284 73.0393 159.309ZM86.5516 118.924C94.2726 118.924 100.366 121.004 104.832 125.163C109.298 129.247 111.531 134.881 111.531 142.065V176.325H101.539V168.611H101.086C96.7709 174.964 91.0176 178.14 83.8261 178.14C77.6955 178.14 72.5479 176.325 68.3841 172.695C64.2964 169.065 62.2525 164.527 62.2525 159.082C62.2525 153.334 64.4105 148.759 68.7254 145.355C73.1154 141.952 78.9437 140.25 86.2113 140.25C92.4179 140.25 97.5275 141.385 101.539 143.654V141.271C101.539 137.641 100.101 134.578 97.2253 132.083C94.3487 129.512 90.9796 128.226 87.1191 128.226C81.2908 128.226 76.6736 130.684 73.2665 135.599L64.0702 129.814C69.1418 122.554 76.6356 118.924 86.5516 118.924ZM123.314 120.739H133.306V128.453H133.759C135.35 125.73 137.772 123.461 141.027 121.646C144.357 119.831 147.801 118.924 151.359 118.924C158.172 118.924 163.395 120.89 167.029 124.823C170.738 128.68 172.593 134.2 172.593 141.385V176.325H162.146V142.065C161.919 132.99 157.34 128.453 148.407 128.453C144.244 128.453 140.762 130.155 137.961 133.557C135.161 136.885 133.759 140.893 133.759 145.582V176.325H123.314V120.739ZM191.907 159.309C191.907 162.031 193.043 164.3 195.313 166.115C197.66 167.93 200.385 168.838 203.489 168.838C207.88 168.838 211.778 167.212 215.184 163.96C218.667 160.708 220.407 156.889 220.407 152.502C217.152 149.931 212.61 148.645 206.782 148.645C202.543 148.645 198.985 149.666 196.109 151.708C193.308 153.75 191.907 156.284 191.907 159.309ZM205.42 118.924C213.141 118.924 219.234 121.004 223.7 125.163C228.166 129.247 230.399 134.881 230.399 142.065V176.325H220.407V168.611H219.953C215.639 174.964 209.886 178.14 202.694 178.14C196.562 178.14 191.416 176.325 187.252 172.695C183.164 169.065 181.12 164.527 181.12 159.082C181.12 153.334 183.278 148.759 187.592 145.355C191.983 141.952 197.812 140.25 205.078 140.25C211.286 140.25 216.395 141.385 220.407 143.654V141.271C220.407 137.641 218.969 134.578 216.092 132.083C213.216 129.512 209.848 128.226 205.987 128.226C200.159 128.226 195.541 130.684 192.134 135.599L182.937 129.814C188.009 122.554 195.503 118.924 205.42 118.924ZM252.627 176.325H242.181V120.739H252.173V128.453H252.627C254.217 125.73 256.639 123.461 259.894 121.646C263.225 119.831 266.518 118.924 269.773 118.924C273.861 118.924 277.456 119.869 280.56 121.76C283.664 123.651 285.934 126.26 287.372 129.587C291.99 122.478 298.386 118.924 306.561 118.924C312.995 118.924 317.954 120.89 321.436 124.823C324.918 128.755 326.659 134.351 326.659 141.612V176.325H316.213V143.2C316.213 137.982 315.266 134.238 313.375 131.969C311.482 129.625 308.303 128.453 303.836 128.453C299.824 128.453 296.456 130.155 293.731 133.557C291.006 136.961 289.643 140.969 289.643 145.582V176.325H279.197V143.2C279.197 137.982 278.251 134.238 276.358 131.969C274.466 129.625 271.286 128.453 266.82 128.453C262.809 128.453 259.441 130.155 256.715 133.557C253.99 136.961 252.627 140.969 252.627 145.582V176.325ZM352.384 101.567C352.384 103.609 351.665 105.349 350.227 106.785C348.789 108.222 347.047 108.941 345.003 108.941C342.959 108.941 341.219 108.222 339.781 106.785C338.342 105.349 337.624 103.609 337.624 101.567C337.624 99.5252 338.342 97.7858 339.781 96.3488C341.219 94.9119 342.959 94.1934 345.003 94.1934C347.047 94.1934 348.789 94.9119 350.227 96.3488C351.665 97.7858 352.384 99.5252 352.384 101.567ZM350.227 120.739V176.325H339.781V120.739H350.227ZM363.821 120.739H373.813V128.453H374.267C375.857 125.73 378.279 123.461 381.534 121.646C384.864 119.831 388.309 118.924 391.867 118.924C398.679 118.924 403.903 120.89 407.536 124.823C411.245 128.68 413.1 134.2 413.1 141.385V176.325H402.654V142.065C402.426 132.99 397.846 128.453 388.914 128.453C384.751 128.453 381.269 130.155 378.469 133.557C375.667 136.885 374.267 140.893 374.267 145.582V176.325H363.821V120.739ZM444.507 177.233C439.965 177.233 436.18 175.833 433.152 173.035C430.2 170.237 428.686 166.342 428.61 161.351V130.268H418.845V120.739H428.61V103.723H439.057V120.739H452.682V130.268H439.057V157.947C439.057 161.653 439.775 164.187 441.214 165.548C442.652 166.834 444.279 167.477 446.096 167.477C446.929 167.477 447.724 167.401 448.48 167.25C449.313 167.023 450.07 166.758 450.751 166.456L454.044 175.758C451.319 176.741 448.14 177.233 444.507 177.233Z" fill="white"/>
</g>
<g clip-path="url(#clip0_143_4)">
<path d="M149.092 31.1833L131.552 48.1035H101.092V36.3007H124.66L139.358 22.3124H149.092V31.1833Z" fill="#0094FF"/>
<path d="M111.577 25.7705H101.092V16.481L118.819 0.103516H149.092V12.3863H125.101L111.577 25.7705Z" fill="#0094FF"/>
<path d="M182.241 43.3063C178.788 43.3063 175.779 42.4924 173.214 40.8645C170.649 39.1874 168.651 36.9183 167.221 34.0574C165.79 31.147 165.075 27.8174 165.075 24.0685C165.075 20.369 165.79 17.064 167.221 14.1537C168.651 11.2434 170.674 8.97432 173.288 7.34651C175.903 5.66938 178.986 4.83081 182.537 4.83081C185.349 4.83081 187.791 5.37341 189.862 6.45862C191.983 7.49449 193.66 8.80167 194.894 10.3802L195.486 5.71871H205.252V42.4184H196.521L196.004 35.9811H195.708C194.326 38.2502 192.501 40.0506 190.232 41.3825C188.012 42.665 185.349 43.3063 182.241 43.3063ZM185.275 34.7973C187.248 34.7973 188.974 34.3533 190.454 33.4654C191.934 32.5282 193.069 31.2703 193.858 29.6919C194.696 28.0641 195.116 26.165 195.116 23.9945C195.116 21.8735 194.696 20.0237 193.858 18.4452C193.069 16.8174 191.934 15.5595 190.454 14.6716C188.974 13.7344 187.248 13.2658 185.275 13.2658C183.351 13.2658 181.649 13.7344 180.169 14.6716C178.69 15.5595 177.555 16.8174 176.766 18.4452C175.977 20.073 175.582 21.9228 175.582 23.9945C175.582 26.1156 175.977 27.9901 176.766 29.6179C177.555 31.2457 178.69 32.5282 180.169 33.4654C181.649 34.3533 183.351 34.7973 185.275 34.7973Z" fill="white"/>
<path d="M211.201 42.4184V5.71871H220.228L221.116 11.86H221.412C222.547 9.54159 224.1 7.79046 226.073 6.6066C228.096 5.42274 230.464 4.83081 233.177 4.83081C235.002 4.83081 236.679 5.07745 238.208 5.57072C239.737 6.064 241.094 6.82857 242.278 7.86445C243.511 8.90033 244.522 10.3062 245.311 12.082H245.607C246.988 9.81289 248.69 8.0371 250.713 6.75458C252.784 5.47207 255.399 4.83081 258.556 4.83081C261.417 4.83081 263.858 5.49673 265.881 6.82857C267.953 8.11109 269.556 10.0349 270.69 12.5999C271.825 15.1156 272.392 18.2232 272.392 21.9228V42.4184H262.107V22.8847C262.107 19.8757 261.515 17.582 260.331 16.0035C259.197 14.3757 257.372 13.5618 254.856 13.5618C253.278 13.5618 251.896 13.9071 250.713 14.5977C249.529 15.2882 248.591 16.3488 247.901 17.7793C247.26 19.1604 246.939 20.8622 246.939 22.8847V42.4184H236.654V22.8847C236.654 19.8757 236.062 17.582 234.878 16.0035C233.744 14.3757 231.919 13.5618 229.403 13.5618C227.973 13.5618 226.641 13.9564 225.408 14.7456C224.224 15.5349 223.286 16.6694 222.596 18.1492C221.905 19.6291 221.56 21.4049 221.56 23.4766V42.4184H211.201Z" fill="white"/>
<path d="M296.169 43.3063C292.37 43.3063 289.016 42.517 286.106 40.9385C283.195 39.3601 280.926 37.165 279.299 34.3533C277.671 31.4923 276.857 28.1874 276.857 24.4385C276.857 20.5909 277.646 17.212 279.225 14.3017C280.852 11.342 283.121 9.02365 286.032 7.34651C288.942 5.66938 292.321 4.83081 296.169 4.83081C299.819 4.83081 303.05 5.62005 305.861 7.19853C308.673 8.77701 310.868 10.9474 312.447 13.7098C314.025 16.4228 314.814 19.5304 314.814 23.0327C314.814 23.5259 314.79 24.0932 314.74 24.7345C314.74 25.3264 314.716 25.943 314.666 26.5842H284.256V20.369H304.308C304.16 18.1492 303.321 16.3734 301.792 15.0416C300.312 13.7098 298.438 13.0438 296.169 13.0438C294.491 13.0438 292.962 13.4138 291.581 14.1537C290.2 14.8936 289.09 16.0282 288.252 17.5573C287.462 19.0865 287.068 21.0349 287.068 23.4026V25.5484C287.068 27.4228 287.438 29.0753 288.178 30.5058C288.967 31.8869 290.027 32.9721 291.359 33.7614C292.74 34.5013 294.294 34.8713 296.021 34.8713C297.796 34.8713 299.276 34.5013 300.46 33.7614C301.644 32.9721 302.557 31.9609 303.198 30.7277H313.705C313.014 33.0955 311.83 35.2412 310.153 37.165C308.525 39.0394 306.503 40.5439 304.086 41.6785C301.718 42.7637 299.079 43.3063 296.169 43.3063Z" fill="white"/>
<path d="M336.983 43.3063C333.432 43.3063 330.226 42.4924 327.365 40.8645C324.553 39.1874 322.309 36.9183 320.631 34.0574C318.954 31.147 318.116 27.8174 318.116 24.0685C318.116 20.3196 318.954 16.99 320.631 14.0797C322.309 11.1694 324.578 8.90033 327.439 7.27252C330.3 5.64471 333.506 4.83081 337.057 4.83081C340.609 4.83081 343.815 5.64471 346.676 7.27252C349.537 8.90033 351.782 11.1694 353.41 14.0797C355.087 16.99 355.925 20.3196 355.925 24.0685C355.925 27.8174 355.087 31.147 353.41 34.0574C351.782 36.9183 349.513 39.1874 346.602 40.8645C343.741 42.4924 340.535 43.3063 336.983 43.3063ZM336.983 34.5753C338.562 34.5753 339.968 34.1807 341.201 33.3914C342.483 32.6022 343.495 31.443 344.235 29.9138C345.024 28.3354 345.418 26.3869 345.418 24.0685C345.418 21.7501 345.024 19.8017 344.235 18.2232C343.495 16.6447 342.483 15.4855 341.201 14.7456C339.968 13.9564 338.587 13.5618 337.057 13.5618C335.578 13.5618 334.196 13.9564 332.914 14.7456C331.631 15.4855 330.596 16.6447 329.806 18.2232C329.066 19.8017 328.696 21.7501 328.696 24.0685C328.696 26.3869 329.066 28.3354 329.806 29.9138C330.596 31.443 331.607 32.6022 332.84 33.3914C334.122 34.1807 335.504 34.5753 336.983 34.5753Z" fill="white"/>
<path d="M376.239 43.3063C372.934 43.3063 370.024 42.7637 367.508 41.6785C364.993 40.5932 362.97 39.1134 361.441 37.239C359.961 35.3152 359.098 33.1448 358.851 30.7277H369.136C369.383 31.5663 369.777 32.3556 370.32 33.0955C370.912 33.8354 371.676 34.452 372.614 34.9452C373.6 35.3892 374.759 35.6112 376.091 35.6112C377.374 35.6112 378.41 35.4385 379.199 35.0932C380.037 34.6986 380.654 34.23 381.049 33.6874C381.443 33.0955 381.641 32.4789 381.641 31.8376C381.641 30.9497 381.345 30.2591 380.753 29.7659C380.161 29.2233 379.298 28.7793 378.163 28.434C377.029 28.0394 375.697 27.6448 374.168 27.2502C372.54 26.8062 370.887 26.3376 369.21 25.8443C367.533 25.3017 366.004 24.6605 364.623 23.9206C363.241 23.1806 362.132 22.1941 361.293 20.9609C360.454 19.7277 360.035 18.1986 360.035 16.3734C360.035 14.2524 360.627 12.3286 361.811 10.6021C362.995 8.82634 364.721 7.4205 366.99 6.38463C369.259 5.34875 371.997 4.83081 375.203 4.83081C379.692 4.83081 383.244 5.86669 385.858 7.93844C388.522 9.96087 390.076 12.7479 390.52 16.2995H380.827C380.58 15.1156 379.963 14.203 378.977 13.5618C377.99 12.9205 376.733 12.5999 375.203 12.5999C373.526 12.5999 372.244 12.9205 371.356 13.5618C370.468 14.1537 370.024 14.8936 370.024 15.7815C370.024 16.4228 370.32 16.99 370.912 17.4833C371.504 17.9273 372.367 18.3219 373.502 18.6672C374.636 19.0125 375.993 19.4071 377.571 19.851C380.284 20.5416 382.701 21.2815 384.822 22.0708C386.993 22.86 388.719 23.9452 390.002 25.3264C391.333 26.6582 391.999 28.582 391.999 31.0977C392.049 33.4161 391.407 35.5125 390.076 37.387C388.793 39.2121 386.968 40.6672 384.6 41.7524C382.282 42.7883 379.495 43.3063 376.239 43.3063Z" fill="white"/>
</g>
<defs>
<clipPath id="clip0_143_4">
<rect width="290.236" height="48" fill="white" transform="translate(101.092 0.126465)"/>
</clipPath>
</defs>
</svg>
