<svg width="100" height="101" viewBox="0 0 100 101" fill="none" xmlns="http://www.w3.org/2000/svg">
<path d="M65.2251 88.1954C59.0783 90.6786 52.4171 91.6207 45.8225 90.9396C39.2279 90.2576 32.9007 87.9735 27.3913 84.2856C21.8818 80.5978 17.3591 75.6175 14.2159 69.7804C11.0726 63.9434 9.40548 57.4257 9.35915 50.7962C9.31281 44.1668 10.8889 37.6266 13.9501 31.746C17.0113 25.8654 21.4648 20.823 26.9223 17.0584C32.3789 13.2938 38.6743 10.9214 45.2584 10.1479C51.8432 9.37437 58.5167 10.2234 64.6975 12.6208L60.8763 22.4726C56.3025 20.6985 51.3636 20.0703 46.4915 20.6427C41.6193 21.2151 36.9609 22.9706 32.9227 25.7565C28.8845 28.5423 25.5884 32.2737 23.323 36.6253C21.0584 40.9769 19.892 45.8167 19.9261 50.7224C19.9603 55.6283 21.1941 60.4512 23.5197 64.7709C25.846 69.0903 29.1933 72.7758 33.2698 75.5045C37.3462 78.234 42.029 79.9239 46.9093 80.4287C51.7888 80.9326 56.7178 80.2352 61.2665 78.3974L65.2251 88.1954Z" fill="#9142FF"/>
<path d="M100 31.8821L61.6469 55.8362L68.6308 100.512L44.6763 62.1595L0 69.1432L38.3532 45.189L31.3701 0.512421L55.3238 38.8655L100 31.8821Z" fill="white"/>
</svg>
