<svg width="512" height="512" viewBox="0 0 512 512" fill="none" xmlns="http://www.w3.org/2000/svg">
<path fill-rule="evenodd" clip-rule="evenodd" d="M250.787 147.855C265.889 147.127 281.006 149.569 295.154 155.057L308.91 119.59C286.659 110.959 262.635 107.903 238.929 110.688C235.452 111.096 231.997 111.629 228.57 112.283L250.787 147.855ZM196.196 122.469C201.932 119.9 207.828 117.703 213.847 115.892L235.014 149.783C223.545 152.049 212.519 156.158 202.366 161.948L196.196 122.469ZM182.7 129.374C179.366 131.304 176.103 133.369 172.919 135.566C153.272 149.118 137.24 167.271 126.219 188.441C115.199 209.611 109.525 233.156 109.692 257.022C109.754 265.916 110.627 274.755 112.283 283.431L147.856 261.214C147.784 259.73 147.743 258.244 147.733 256.756C147.61 239.095 151.809 221.672 159.962 206.006C167.094 192.306 177.064 180.313 189.177 170.812L182.7 129.374ZM149.784 276.987L115.892 298.155C117.7 304.164 119.896 310.06 122.47 315.806L161.948 309.635C161.513 308.873 161.087 308.104 160.67 307.33C155.53 297.782 151.871 287.551 149.784 276.987ZM170.813 322.825C177.836 331.778 186.251 339.599 195.77 345.971C210.445 355.797 227.303 361.881 244.872 363.698C250.318 364.261 255.78 364.408 261.214 364.145L283.431 399.717C269.488 402.378 255.181 403.006 240.96 401.537C217.219 399.082 194.442 390.86 174.608 377.583C156.024 365.144 140.559 348.62 129.375 329.302L170.813 322.825ZM298.155 396.108L276.987 362.216C283.657 360.898 290.21 358.951 296.558 356.386L310.809 391.659C306.652 393.338 302.429 394.822 298.155 396.108Z" fill="white"/>
<path d="M436 188.931L297.929 275.165L323.071 436L236.835 297.929L76 323.07L214.071 236.835L188.932 76L275.165 214.071L436 188.931Z" fill="white"/>
</svg>
