<svg width="512" height="512" viewBox="0 0 512 512" fill="none" xmlns="http://www.w3.org/2000/svg">
<path d="M310.81 391.659C288.682 400.598 264.701 403.99 240.961 401.538C217.22 399.082 194.443 390.86 174.609 377.583C154.775 364.307 138.493 346.378 127.177 325.365C115.862 304.351 109.86 280.888 109.693 257.022C109.526 233.156 115.2 209.611 126.22 188.441C137.241 167.271 153.273 149.118 172.92 135.566C192.564 122.013 215.228 113.472 238.93 110.688C262.636 107.903 286.66 110.96 308.911 119.59L295.155 155.057C278.689 148.67 260.909 146.408 243.369 148.469C225.829 150.53 209.059 156.85 194.522 166.879C179.984 176.908 168.118 190.341 159.963 206.006C151.81 221.672 147.611 239.095 147.734 256.756C147.857 274.417 152.299 291.779 160.671 307.33C169.046 322.88 181.096 336.148 195.771 345.971C210.446 355.798 227.304 361.881 244.873 363.698C262.44 365.513 280.184 363.002 296.559 356.386L310.81 391.659Z" fill="url(#paint0_linear_687_740)"/>
<path d="M436 188.931L297.928 275.165L323.071 436L236.835 297.929L76 323.07L214.071 236.835L188.932 76L275.165 214.071L436 188.931Z" fill="white"/>
<defs>
<linearGradient id="paint0_linear_687_740" x1="260.587" y1="108.423" x2="324.964" y2="433.235" gradientUnits="userSpaceOnUse">
<stop stop-color="#FF4242"/>
<stop offset="0.128373" stop-color="#FF9E44"/>
<stop offset="0.288046" stop-color="#FFC83A"/>
<stop offset="0.421994" stop-color="#3BD138"/>
<stop offset="0.606717" stop-color="#356EFF"/>
<stop offset="0.753739" stop-color="#7B00A7"/>
</linearGradient>
</defs>
</svg>
