<svg width="513" height="513" viewBox="0 0 513 513" fill="none" xmlns="http://www.w3.org/2000/svg">
<path d="M311.297 392.146C289.169 401.086 265.189 404.477 241.448 402.025C217.708 399.57 194.93 391.347 175.096 378.071C155.262 364.794 138.98 346.865 127.665 325.852C116.349 304.839 110.347 281.375 110.18 257.509C110.014 233.643 115.687 210.098 126.708 188.928C137.728 167.758 153.761 149.606 173.407 136.053C193.051 122.5 215.715 113.96 239.417 111.175C263.123 108.39 287.147 111.447 309.398 120.078L295.642 155.544C279.176 149.157 261.396 146.896 243.857 148.956C226.317 151.017 209.546 157.337 195.009 167.366C180.471 177.395 168.606 190.828 160.45 206.494C152.298 222.16 148.098 239.583 148.221 257.243C148.344 274.904 152.786 292.267 161.158 307.818C169.533 323.368 181.583 336.635 196.258 346.459C210.934 356.285 227.792 362.369 245.361 364.186C262.927 366 280.671 363.489 297.047 356.873L311.297 392.146Z" fill="url(#paint0_linear_687_743)"/>
<path d="M436.487 189.418L298.416 275.653L323.558 436.487L237.322 298.417L76.4873 323.558L214.559 237.323L189.419 76.4873L275.653 214.558L436.487 189.418Z" fill="#0E0B1D"/>
<defs>
<linearGradient id="paint0_linear_687_743" x1="261.074" y1="108.91" x2="325.451" y2="433.722" gradientUnits="userSpaceOnUse">
<stop stop-color="#FF4242"/>
<stop offset="0.128373" stop-color="#FF9E44"/>
<stop offset="0.288046" stop-color="#FFC83A"/>
<stop offset="0.421994" stop-color="#3BD138"/>
<stop offset="0.606717" stop-color="#356EFF"/>
<stop offset="0.753739" stop-color="#7B00A7"/>
</linearGradient>
</defs>
</svg>
