<svg width="513" height="513" viewBox="0 0 513 513" fill="none" xmlns="http://www.w3.org/2000/svg">
<path fill-rule="evenodd" clip-rule="evenodd" d="M251.275 148.342C266.377 147.614 281.494 150.057 295.641 155.544L309.398 120.078C287.147 111.447 263.122 108.39 239.417 111.175C235.939 111.584 232.484 112.116 229.058 112.77L251.275 148.342ZM196.683 122.957C202.419 120.388 208.315 118.191 214.335 116.38L235.501 150.27C224.032 152.537 213.007 156.645 202.854 162.435L196.683 122.957ZM183.188 129.862C179.854 131.792 176.59 133.856 173.407 136.053C153.76 149.606 137.727 167.758 126.707 188.928C115.687 210.098 110.013 233.643 110.18 257.509C110.242 266.404 111.114 275.242 112.77 283.919L148.344 261.701C148.272 260.218 148.231 258.732 148.221 257.243C148.098 239.583 152.297 222.16 160.449 206.494C167.582 192.794 177.551 180.801 189.664 171.299L183.188 129.862ZM150.271 277.475L116.38 298.642C118.188 304.651 120.384 310.548 122.957 316.294L162.435 310.123C162 309.36 161.574 308.592 161.157 307.818C156.017 298.27 152.358 288.039 150.271 277.475ZM171.3 323.312C178.324 332.265 186.739 340.087 196.258 346.459C210.933 356.285 227.791 362.369 245.36 364.186C250.805 364.748 256.268 364.895 261.701 364.633L283.919 400.205C269.976 402.866 255.668 403.494 241.448 402.025C217.707 399.57 194.929 391.347 175.095 378.071C156.512 365.631 141.047 349.108 129.863 329.789L171.3 323.312ZM298.642 396.595L277.475 362.704C284.144 361.386 290.698 359.438 297.046 356.873L311.297 392.146C307.139 393.825 302.917 395.309 298.642 396.595Z" fill="#131313"/>
<path d="M436.488 189.418L298.416 275.653L323.558 436.487L237.322 298.417L76.4875 323.558L214.559 237.323L189.42 76.4873L275.653 214.558L436.488 189.418Z" fill="#131313"/>
</svg>
