<svg width="100" height="100" viewBox="0 0 100 100" fill="none" xmlns="http://www.w3.org/2000/svg">
<path fill-rule="evenodd" clip-rule="evenodd" d="M48.5521 19.9597C52.747 19.7575 56.9463 20.4359 60.8761 21.9602L64.6973 12.1084C58.5164 9.711 51.843 8.86198 45.2581 9.63549C44.2922 9.74896 43.3325 9.89686 42.3807 10.0785L48.5521 19.9597ZM33.3877 12.9081C34.981 12.1945 36.6189 11.5842 38.2909 11.0812L44.1705 20.4953C40.9847 21.1248 37.922 22.2661 35.1018 23.8745L33.3877 12.9081ZM29.6389 14.8262C28.7128 15.3623 27.8064 15.9359 26.922 16.546C21.4646 20.3106 17.011 25.353 13.9498 31.2336C10.8887 37.1142 9.31257 43.6544 9.3589 50.2838C9.37617 52.7545 9.61856 55.2097 10.0786 57.6199L19.96 51.4483C19.9401 51.0363 19.9287 50.6235 19.9259 50.21C19.8917 45.3043 21.0582 40.4645 23.3227 36.1129C25.3039 32.3073 28.0733 28.976 31.438 26.3367L29.6389 14.8262ZM20.4955 55.8299L11.0813 61.7097C11.5834 63.3789 12.1933 65.0168 12.9083 66.613L23.8744 64.8988C23.7536 64.687 23.6352 64.4735 23.5194 64.2585C22.0916 61.6062 21.0753 58.7643 20.4955 55.8299ZM26.3368 68.5624C28.2878 71.0495 30.6253 73.2221 33.2695 74.9921C37.3459 77.7216 42.0287 79.4115 46.909 79.9163C48.4216 80.0725 49.939 80.1133 51.4483 80.0404L57.6199 89.9215C53.7467 90.6608 49.7725 90.8352 45.8222 90.4272C39.2276 89.7452 32.9005 87.4611 27.391 83.7732C22.2289 80.3179 17.9331 75.7279 14.8265 70.3617L26.3368 68.5624ZM61.7098 88.9189L55.8298 79.5047C57.6824 79.1385 59.5029 78.5975 61.2663 77.885L65.2248 87.683C64.07 88.1496 62.897 88.5617 61.7098 88.9189Z" fill="white"/>
<path d="M100 31.3697L61.6469 55.3238L68.6308 100L44.6763 61.6471L0 68.6307L38.3532 44.6766L31.3701 0L55.3238 38.3531L100 31.3697Z" fill="white"/>
</svg>
