<svg width="513" height="513" viewBox="0 0 513 513" fill="none" xmlns="http://www.w3.org/2000/svg">
<path d="M311.298 392.146C289.17 401.085 265.189 404.477 241.449 402.025C217.708 399.57 194.93 391.347 175.096 378.071C155.262 364.794 138.981 346.865 127.665 325.852C116.349 304.839 110.348 281.375 110.181 257.509C110.014 233.643 115.688 210.098 126.708 188.928C137.728 167.758 153.761 149.605 173.408 136.053C193.052 122.5 215.715 113.96 239.418 111.175C263.123 108.39 287.148 111.447 309.399 120.077L295.643 155.544C279.177 149.157 261.397 146.895 243.857 148.956C226.317 151.017 209.547 157.337 195.009 167.366C180.472 177.395 168.606 190.828 160.451 206.493C152.298 222.159 148.099 239.582 148.222 257.243C148.345 274.904 152.787 292.267 161.159 307.818C169.534 323.368 181.584 336.635 196.259 346.458C210.934 356.285 227.792 362.368 245.361 364.186C262.927 366 280.672 363.489 297.047 356.873L311.298 392.146Z" fill="#9142FF"/>
<path d="M436.488 189.418L298.416 275.653L323.558 436.487L237.322 298.417L76.4875 323.558L214.559 237.323L189.42 76.4873L275.653 214.558L436.488 189.418Z" fill="#0E0B1D"/>
</svg>
