<svg width="256" height="256" viewBox="0 0 256 256" fill="none" xmlns="http://www.w3.org/2000/svg">
<g clip-path="url(#clip0_108_14)">
<path d="M105.34 32.9046C111.79 40.9133 121.519 45.5703 131.802 45.5703H226.208C242.063 45.5703 254.943 58.3743 255.036 74.2295L255.785 201.542C255.904 221.616 239.616 237.928 219.542 237.84L29.6339 237.005C13.2465 236.933 0 223.628 0 207.24V46.2362C0 41.7326 1.08594 37.2954 3.16574 33.3008C6.57974 26.7436 12.4475 21.802 19.4899 19.5532L20.0031 19.3893C22.8863 18.4687 25.8947 18 28.9213 18H72.7684C81.0915 18 89.2355 20.4169 96.2111 24.9572L97.4123 25.7391C100.416 27.6944 103.092 30.1128 105.34 32.9046Z" fill="url(#paint0_linear_108_14)"/>
<path d="M105.34 32.9046C111.79 40.9133 121.519 45.5703 131.802 45.5703H226.208C242.063 45.5703 254.943 58.3743 255.036 74.2295L255.785 201.542C255.904 221.616 239.616 237.928 219.542 237.84L29.6339 237.005C13.2465 236.933 0 223.628 0 207.24V46.2362C0 41.7326 1.08594 37.2954 3.16574 33.3008C6.57974 26.7436 12.4475 21.802 19.4899 19.5532L20.0031 19.3893C22.8863 18.4687 25.8947 18 28.9213 18H72.7684C81.0915 18 89.2355 20.4169 96.2111 24.9572L97.4123 25.7391C100.416 27.6944 103.092 30.1128 105.34 32.9046Z" fill="#1D1100" fill-opacity="0.55"/>
<path d="M104.562 33.5318C111.201 41.7763 121.216 46.5703 131.802 46.5703H226.208C241.513 46.5703 253.946 58.9301 254.036 74.2354L254.785 201.548C254.9 221.066 239.064 236.926 219.546 236.84L29.6383 236.005C13.8015 235.935 1 223.077 1 207.24V46.2362C1 41.8933 2.04717 37.6146 4.05272 33.7626C7.34484 27.4395 13.0031 22.6743 19.7941 20.5058L20.3073 20.3419C23.0921 19.4527 25.9979 19 28.9213 19H72.7684C80.8978 19 88.8523 21.3607 95.6656 25.7953L96.8668 26.5772C99.7825 28.4749 102.38 30.8222 104.562 33.5318Z" stroke="#351600" stroke-opacity="0.29" stroke-width="2"/>
<rect y="71.458" width="255.004" height="166.542" rx="26.6667" fill="url(#paint1_linear_108_14)"/>
<rect x="1" y="72.458" width="253.004" height="164.542" rx="25.6667" stroke="white" stroke-opacity="0.14" stroke-width="2"/>
</g>
<defs>
<linearGradient id="paint0_linear_108_14" x1="128" y1="18" x2="95.4193" y2="233.064" gradientUnits="userSpaceOnUse">
<stop stop-color="#FFB74A"/>
<stop offset="1" stop-color="#FF6231"/>
</linearGradient>
<linearGradient id="paint1_linear_108_14" x1="135.471" y1="71.458" x2="77.8252" y2="216.825" gradientUnits="userSpaceOnUse">
<stop stop-color="#FFB74A"/>
<stop offset="1" stop-color="#FF7F37"/>
</linearGradient>
<clipPath id="clip0_108_14">
<rect width="256" height="256" fill="white"/>
</clipPath>
</defs>
</svg>
