<svg width="256" height="256" viewBox="0 0 256 256" fill="none" xmlns="http://www.w3.org/2000/svg">
<circle cx="83.262" cy="86.8641" r="65.8641" fill="url(#paint0_linear_171_2)"/>
<path fill-rule="evenodd" clip-rule="evenodd" d="M196.796 230.215C231.214 218.622 256 186.084 256 147.757C256 99.7138 217.053 60.767 169.01 60.767C137.327 60.767 109.6 77.7048 94.3899 103.019H65.864C29.4883 103.019 0 132.508 0 168.883C0 205.259 29.4883 234.748 65.864 234.748H169.01H172.738C181.228 234.748 189.344 233.141 196.796 230.215Z" fill="url(#paint1_linear_171_2)"/>
<path fill-rule="evenodd" clip-rule="evenodd" d="M196.796 230.215C231.214 218.622 256 186.084 256 147.757C256 99.7138 217.053 60.767 169.01 60.767C137.327 60.767 109.6 77.7048 94.3899 103.019H65.864C29.4883 103.019 0 132.508 0 168.883C0 205.259 29.4883 234.748 65.864 234.748H169.01H172.738C181.228 234.748 189.344 233.141 196.796 230.215Z" fill="white" fill-opacity="0.8"/>
<path fill-rule="evenodd" clip-rule="evenodd" d="M196.796 230.215C231.214 218.622 256 186.084 256 147.757C256 99.7138 217.053 60.767 169.01 60.767C137.327 60.767 109.6 77.7048 94.3899 103.019H65.864C29.4883 103.019 0 132.508 0 168.883C0 205.259 29.4883 234.748 65.864 234.748H169.01H172.738C181.228 234.748 189.344 233.141 196.796 230.215Z" fill="url(#paint2_linear_171_2)" fill-opacity="0.2"/>
<path fill-rule="evenodd" clip-rule="evenodd" d="M196.796 230.215C231.214 218.622 256 186.084 256 147.757C256 99.7138 217.053 60.767 169.01 60.767C137.327 60.767 109.6 77.7048 94.3899 103.019H65.864C29.4883 103.019 0 132.508 0 168.883C0 205.259 29.4883 234.748 65.864 234.748H169.01H172.738C181.228 234.748 189.344 233.141 196.796 230.215Z" fill="url(#paint3_radial_171_2)" fill-opacity="0.08"/>
<path fill-rule="evenodd" clip-rule="evenodd" d="M196.796 230.215C231.214 218.622 256 186.084 256 147.757C256 99.7138 217.053 60.767 169.01 60.767C137.327 60.767 109.6 77.7048 94.3899 103.019H65.864C29.4883 103.019 0 132.508 0 168.883C0 205.259 29.4883 234.748 65.864 234.748H169.01H172.738C181.228 234.748 189.344 233.141 196.796 230.215Z" fill="white" fill-opacity="0.24"/>
<defs>
<linearGradient id="paint0_linear_171_2" x1="17.3979" y1="21" x2="149.126" y2="152.728" gradientUnits="userSpaceOnUse">
<stop stop-color="#FFD074"/>
<stop offset="0.0001" stop-color="#FFE600"/>
<stop offset="1" stop-color="#FF5C00"/>
</linearGradient>
<linearGradient id="paint1_linear_171_2" x1="170.252" y1="60.767" x2="171.495" y2="234.748" gradientUnits="userSpaceOnUse">
<stop stop-color="#2FCDFF"/>
<stop offset="1" stop-color="#0094FF"/>
</linearGradient>
<linearGradient id="paint2_linear_171_2" x1="128" y1="60.767" x2="128" y2="234.748" gradientUnits="userSpaceOnUse">
<stop offset="0.655" stop-color="#00D1FF" stop-opacity="0"/>
<stop offset="1" stop-color="#09D3FF"/>
</linearGradient>
<radialGradient id="paint3_radial_171_2" cx="0" cy="0" r="1" gradientUnits="userSpaceOnUse" gradientTransform="translate(128 147.757) rotate(90) scale(86.9903 128)">
<stop stop-color="#00E0FF" stop-opacity="0"/>
<stop offset="1" stop-color="#0094FF"/>
</radialGradient>
</defs>
</svg>
